<ttFont>
    <TTGlyph name=".notdef" xMin="67" yMin="0" xMax="604" yMax="1349">
      <contour>
        <pt x="67" y="0" on="1"/>
        <pt x="67" y="1349" on="1"/>
        <pt x="604" y="1349" on="1"/>
        <pt x="604" y="0" on="1"/>
      </contour>
      <contour>
        <pt x="134" y="67" on="1"/>
        <pt x="537" y="67" on="1"/>
        <pt x="537" y="1282" on="1"/>
        <pt x="134" y="1282" on="1"/>
      </contour>
    </TTGlyph>
    <TTGlyph name="57504" xMin="135" yMin="-207" xMax="984" yMax="1442">
      <contour>
        <pt x="452" y="1022" on="1"/>
        <pt x="452" y="1237" on="1"/>
        <pt x="611" y="1237" on="1"/>
        <pt x="611" y="1442" on="1"/>
        <pt x="826" y="1442" on="1"/>
        <pt x="826" y="1237" on="1"/>
        <pt x="984" y="1237" on="1"/>
        <pt x="984" y="1022" on="1"/>
        <pt x="826" y="1022" on="1"/>
        <pt x="826" y="203" on="1"/>
        <pt x="667" y="203" on="1"/>
        <pt x="667" y="-2" on="1"/>
        <pt x="508" y="-2" on="1"/>
        <pt x="508" y="-207" on="1"/>
        <pt x="135" y="-207" on="1"/>
        <pt x="135" y="8" on="1"/>
        <pt x="452" y="8" on="1"/>
        <pt x="452" y="213" on="1"/>
        <pt x="611" y="213" on="1"/>
        <pt x="611" y="1022" on="1"/>
      </contour>
      <contour>
        <pt x="350" y="1442" on="1"/>
        <pt x="350" y="203" on="1"/>
        <pt x="135" y="203" on="1"/>
        <pt x="135" y="1442" on="1"/>
      </contour>
    </TTGlyph>
    <TTGlyph name="57505" xMin="135" yMin="-207" xMax="984" yMax="1442">
      <contour>
        <pt x="350" y="1442" on="1"/>
        <pt x="350" y="827" on="1"/>
        <pt x="667" y="827" on="1"/>
        <pt x="667" y="612" on="1"/>
        <pt x="508" y="612" on="1"/>
        <pt x="508" y="418" on="1"/>
        <pt x="667" y="418" on="1"/>
        <pt x="667" y="213" on="1"/>
        <pt x="769" y="213" on="1"/>
        <pt x="769" y="623" on="1"/>
        <pt x="984" y="623" on="1"/>
        <pt x="984" y="-207" on="1"/>
        <pt x="769" y="-207" on="1"/>
        <pt x="769" y="-2" on="1"/>
        <pt x="611" y="-2" on="1"/>
        <pt x="611" y="203" on="1"/>
        <pt x="508" y="203" on="1"/>
        <pt x="508" y="-207" on="1"/>
        <pt x="293" y="-207" on="1"/>
        <pt x="293" y="612" on="1"/>
        <pt x="135" y="612" on="1"/>
        <pt x="135" y="1442" on="1"/>
      </contour>
    </TTGlyph>
    <TTGlyph name="57506" xMin="135" yMin="-2" xMax="984" yMax="1442">
      <contour>
        <pt x="769" y="1227" on="1"/>
        <pt x="350" y="1227" on="1"/>
        <pt x="350" y="1032" on="1"/>
        <pt x="769" y="1032" on="1"/>
      </contour>
      <contour>
        <pt x="293" y="1442" on="1"/>
        <pt x="826" y="1442" on="1"/>
        <pt x="826" y="1237" on="1"/>
        <pt x="984" y="1237" on="1"/>
        <pt x="984" y="-2" on="1"/>
        <pt x="135" y="-2" on="1"/>
        <pt x="135" y="1237" on="1"/>
        <pt x="293" y="1237" on="1"/>
      </contour>
      <contour>
        <pt x="769" y="817" on="1"/>
        <pt x="350" y="817" on="1"/>
        <pt x="350" y="623" on="1"/>
        <pt x="508" y="623" on="1"/>
        <pt x="508" y="213" on="1"/>
        <pt x="611" y="213" on="1"/>
        <pt x="611" y="623" on="1"/>
        <pt x="769" y="623" on="1"/>
      </contour>
    </TTGlyph>
    <TTGlyph name="57520" xMin="135" yMin="-207" xMax="984" yMax="1647">
      <contour>
        <pt x="135" y="-207" on="1"/>
        <pt x="135" y="1647" on="1"/>
        <pt x="350" y="1647" on="1"/>
        <pt x="350" y="1442" on="1"/>
        <pt x="508" y="1442" on="1"/>
        <pt x="508" y="1237" on="1"/>
        <pt x="667" y="1237" on="1"/>
        <pt x="667" y="1032" on="1"/>
        <pt x="826" y="1032" on="1"/>
        <pt x="826" y="827" on="1"/>
        <pt x="984" y="827" on="1"/>
        <pt x="984" y="612" on="1"/>
        <pt x="826" y="612" on="1"/>
        <pt x="826" y="408" on="1"/>
        <pt x="667" y="408" on="1"/>
        <pt x="667" y="203" on="1"/>
        <pt x="508" y="203" on="1"/>
        <pt x="508" y="-2" on="1"/>
        <pt x="350" y="-2" on="1"/>
        <pt x="350" y="-207" on="1"/>
      </contour>
    </TTGlyph>
    <TTGlyph name="57521" xMin="135" yMin="-207" xMax="984" yMax="1647">
      <contour>
        <pt x="135" y="1432" on="1"/>
        <pt x="135" y="1647" on="1"/>
        <pt x="350" y="1647" on="1"/>
        <pt x="350" y="1442" on="1"/>
        <pt x="508" y="1442" on="1"/>
        <pt x="508" y="1237" on="1"/>
        <pt x="667" y="1237" on="1"/>
        <pt x="667" y="1032" on="1"/>
        <pt x="826" y="1032" on="1"/>
        <pt x="826" y="827" on="1"/>
        <pt x="984" y="827" on="1"/>
        <pt x="984" y="612" on="1"/>
        <pt x="826" y="612" on="1"/>
        <pt x="826" y="408" on="1"/>
        <pt x="667" y="408" on="1"/>
        <pt x="667" y="203" on="1"/>
        <pt x="508" y="203" on="1"/>
        <pt x="508" y="-2" on="1"/>
        <pt x="350" y="-2" on="1"/>
        <pt x="350" y="-207" on="1"/>
        <pt x="135" y="-207" on="1"/>
        <pt x="135" y="8" on="1"/>
        <pt x="293" y="8" on="1"/>
        <pt x="293" y="213" on="1"/>
        <pt x="452" y="213" on="1"/>
        <pt x="452" y="418" on="1"/>
        <pt x="611" y="418" on="1"/>
        <pt x="611" y="623" on="1"/>
        <pt x="769" y="623" on="1"/>
        <pt x="769" y="817" on="1"/>
        <pt x="611" y="817" on="1"/>
        <pt x="611" y="1022" on="1"/>
        <pt x="452" y="1022" on="1"/>
        <pt x="452" y="1227" on="1"/>
        <pt x="293" y="1227" on="1"/>
        <pt x="293" y="1432" on="1"/>
      </contour>
    </TTGlyph>
    <TTGlyph name="57522" xMin="135" yMin="-207" xMax="984" yMax="1647">
      <contour>
        <pt x="135" y="612" on="1"/>
        <pt x="135" y="827" on="1"/>
        <pt x="293" y="827" on="1"/>
        <pt x="293" y="1032" on="1"/>
        <pt x="452" y="1032" on="1"/>
        <pt x="452" y="1237" on="1"/>
        <pt x="611" y="1237" on="1"/>
        <pt x="611" y="1442" on="1"/>
        <pt x="769" y="1442" on="1"/>
        <pt x="769" y="1647" on="1"/>
        <pt x="984" y="1647" on="1"/>
        <pt x="984" y="-207" on="1"/>
        <pt x="769" y="-207" on="1"/>
        <pt x="769" y="-2" on="1"/>
        <pt x="611" y="-2" on="1"/>
        <pt x="611" y="203" on="1"/>
        <pt x="452" y="203" on="1"/>
        <pt x="452" y="408" on="1"/>
        <pt x="293" y="408" on="1"/>
        <pt x="293" y="612" on="1"/>
      </contour>
    </TTGlyph>
    <TTGlyph name="57523" xMin="135" yMin="-207" xMax="984" yMax="1647">
      <contour>
        <pt x="135" y="612" on="1"/>
        <pt x="135" y="827" on="1"/>
        <pt x="293" y="827" on="1"/>
        <pt x="293" y="1032" on="1"/>
        <pt x="452" y="1032" on="1"/>
        <pt x="452" y="1237" on="1"/>
        <pt x="611" y="1237" on="1"/>
        <pt x="611" y="1442" on="1"/>
        <pt x="769" y="1442" on="1"/>
        <pt x="769" y="1647" on="1"/>
        <pt x="984" y="1647" on="1"/>
        <pt x="984" y="1432" on="1"/>
        <pt x="826" y="1432" on="1"/>
        <pt x="826" y="1227" on="1"/>
        <pt x="667" y="1227" on="1"/>
        <pt x="667" y="1022" on="1"/>
        <pt x="508" y="1022" on="1"/>
        <pt x="508" y="817" on="1"/>
        <pt x="350" y="817" on="1"/>
        <pt x="350" y="623" on="1"/>
        <pt x="508" y="623" on="1"/>
        <pt x="508" y="418" on="1"/>
        <pt x="667" y="418" on="1"/>
        <pt x="667" y="213" on="1"/>
        <pt x="826" y="213" on="1"/>
        <pt x="826" y="8" on="1"/>
        <pt x="984" y="8" on="1"/>
        <pt x="984" y="-207" on="1"/>
        <pt x="769" y="-207" on="1"/>
        <pt x="769" y="-2" on="1"/>
        <pt x="611" y="-2" on="1"/>
        <pt x="611" y="203" on="1"/>
        <pt x="452" y="203" on="1"/>
        <pt x="452" y="408" on="1"/>
        <pt x="293" y="408" on="1"/>
        <pt x="293" y="612" on="1"/>
      </contour>
    </TTGlyph>
    <TTGlyph name="A" xMin="135" yMin="-2" xMax="984" yMax="1442">
      <contour>
        <pt x="508" y="1227" on="1"/>
        <pt x="508" y="1022" on="1"/>
        <pt x="350" y="1022" on="1"/>
        <pt x="350" y="623" on="1"/>
        <pt x="769" y="623" on="1"/>
        <pt x="769" y="1022" on="1"/>
        <pt x="611" y="1022" on="1"/>
        <pt x="611" y="1227" on="1"/>
      </contour>
      <contour>
        <pt x="452" y="1237" on="1"/>
        <pt x="452" y="1442" on="1"/>
        <pt x="667" y="1442" on="1"/>
        <pt x="667" y="1237" on="1"/>
        <pt x="826" y="1237" on="1"/>
        <pt x="826" y="1032" on="1"/>
        <pt x="984" y="1032" on="1"/>
        <pt x="984" y="-2" on="1"/>
        <pt x="769" y="-2" on="1"/>
        <pt x="769" y="408" on="1"/>
        <pt x="350" y="408" on="1"/>
        <pt x="350" y="-2" on="1"/>
        <pt x="135" y="-2" on="1"/>
        <pt x="135" y="1032" on="1"/>
        <pt x="293" y="1032" on="1"/>
        <pt x="293" y="1237" on="1"/>
      </contour>
    </TTGlyph>
    <TTGlyph name="B" xMin="135" yMin="-2" xMax="984" yMax="1442">
      <contour>
        <pt x="135" y="1442" on="1"/>
        <pt x="826" y="1442" on="1"/>
        <pt x="826" y="1237" on="1"/>
        <pt x="984" y="1237" on="1"/>
        <pt x="984" y="817" on="1"/>
        <pt x="826" y="817" on="1"/>
        <pt x="826" y="623" on="1"/>
        <pt x="984" y="623" on="1"/>
        <pt x="984" y="203" on="1"/>
        <pt x="826" y="203" on="1"/>
        <pt x="826" y="-2" on="1"/>
        <pt x="135" y="-2" on="1"/>
      </contour>
      <contour>
        <pt x="769" y="1227" on="1"/>
        <pt x="350" y="1227" on="1"/>
        <pt x="350" y="827" on="1"/>
        <pt x="769" y="827" on="1"/>
      </contour>
      <contour>
        <pt x="769" y="612" on="1"/>
        <pt x="350" y="612" on="1"/>
        <pt x="350" y="213" on="1"/>
        <pt x="769" y="213" on="1"/>
      </contour>
    </TTGlyph>
    <TTGlyph name="C" xMin="135" yMin="-2" xMax="984" yMax="1442">
      <contour>
        <pt x="769" y="1227" on="1"/>
        <pt x="350" y="1227" on="1"/>
        <pt x="350" y="213" on="1"/>
        <pt x="769" y="213" on="1"/>
        <pt x="769" y="418" on="1"/>
        <pt x="984" y="418" on="1"/>
        <pt x="984" y="203" on="1"/>
        <pt x="826" y="203" on="1"/>
        <pt x="826" y="-2" on="1"/>
        <pt x="293" y="-2" on="1"/>
        <pt x="293" y="203" on="1"/>
        <pt x="135" y="203" on="1"/>
        <pt x="135" y="1237" on="1"/>
        <pt x="293" y="1237" on="1"/>
        <pt x="293" y="1442" on="1"/>
        <pt x="826" y="1442" on="1"/>
        <pt x="826" y="1237" on="1"/>
        <pt x="984" y="1237" on="1"/>
        <pt x="984" y="1022" on="1"/>
        <pt x="769" y="1022" on="1"/>
      </contour>
    </TTGlyph>
    <TTGlyph name="D" xMin="135" yMin="-2" xMax="984" yMax="1442">
      <contour>
        <pt x="135" y="1442" on="1"/>
        <pt x="667" y="1442" on="1"/>
        <pt x="667" y="1237" on="1"/>
        <pt x="826" y="1237" on="1"/>
        <pt x="826" y="1032" on="1"/>
        <pt x="984" y="1032" on="1"/>
        <pt x="984" y="408" on="1"/>
        <pt x="826" y="408" on="1"/>
        <pt x="826" y="203" on="1"/>
        <pt x="667" y="203" on="1"/>
        <pt x="667" y="-2" on="1"/>
        <pt x="135" y="-2" on="1"/>
      </contour>
      <contour>
        <pt x="611" y="1227" on="1"/>
        <pt x="350" y="1227" on="1"/>
        <pt x="350" y="213" on="1"/>
        <pt x="611" y="213" on="1"/>
        <pt x="611" y="418" on="1"/>
        <pt x="769" y="418" on="1"/>
        <pt x="769" y="1022" on="1"/>
        <pt x="611" y="1022" on="1"/>
      </contour>
    </TTGlyph>
    <TTGlyph name="E" xMin="135" yMin="-2" xMax="984" yMax="1442">
      <contour>
        <pt x="135" y="1442" on="1"/>
        <pt x="984" y="1442" on="1"/>
        <pt x="984" y="1227" on="1"/>
        <pt x="350" y="1227" on="1"/>
        <pt x="350" y="827" on="1"/>
        <pt x="826" y="827" on="1"/>
        <pt x="826" y="612" on="1"/>
        <pt x="350" y="612" on="1"/>
        <pt x="350" y="213" on="1"/>
        <pt x="984" y="213" on="1"/>
        <pt x="984" y="-2" on="1"/>
        <pt x="135" y="-2" on="1"/>
      </contour>
    </TTGlyph>
    <TTGlyph name="F" xMin="135" yMin="-2" xMax="984" yMax="1442">
      <contour>
        <pt x="135" y="1442" on="1"/>
        <pt x="984" y="1442" on="1"/>
        <pt x="984" y="1227" on="1"/>
        <pt x="350" y="1227" on="1"/>
        <pt x="350" y="827" on="1"/>
        <pt x="826" y="827" on="1"/>
        <pt x="826" y="612" on="1"/>
        <pt x="350" y="612" on="1"/>
        <pt x="350" y="-2" on="1"/>
        <pt x="135" y="-2" on="1"/>
      </contour>
    </TTGlyph>
    <TTGlyph name="G" xMin="135" yMin="-2" xMax="984" yMax="1442">
      <contour>
        <pt x="611" y="408" on="1"/>
        <pt x="611" y="623" on="1"/>
        <pt x="984" y="623" on="1"/>
        <pt x="984" y="-2" on="1"/>
        <pt x="293" y="-2" on="1"/>
        <pt x="293" y="203" on="1"/>
        <pt x="135" y="203" on="1"/>
        <pt x="135" y="1237" on="1"/>
        <pt x="293" y="1237" on="1"/>
        <pt x="293" y="1442" on="1"/>
        <pt x="984" y="1442" on="1"/>
        <pt x="984" y="1227" on="1"/>
        <pt x="350" y="1227" on="1"/>
        <pt x="350" y="213" on="1"/>
        <pt x="769" y="213" on="1"/>
        <pt x="769" y="408" on="1"/>
      </contour>
    </TTGlyph>
    <TTGlyph name="H" xMin="135" yMin="-2" xMax="984" yMax="1442">
      <contour>
        <pt x="350" y="1442" on="1"/>
        <pt x="350" y="827" on="1"/>
        <pt x="769" y="827" on="1"/>
        <pt x="769" y="1442" on="1"/>
        <pt x="984" y="1442" on="1"/>
        <pt x="984" y="-2" on="1"/>
        <pt x="769" y="-2" on="1"/>
        <pt x="769" y="612" on="1"/>
        <pt x="350" y="612" on="1"/>
        <pt x="350" y="-2" on="1"/>
        <pt x="135" y="-2" on="1"/>
        <pt x="135" y="1442" on="1"/>
      </contour>
    </TTGlyph>
    <TTGlyph name="I" xMin="293" yMin="-2" xMax="826" yMax="1442">
      <contour>
        <pt x="293" y="1227" on="1"/>
        <pt x="293" y="1442" on="1"/>
        <pt x="826" y="1442" on="1"/>
        <pt x="826" y="1227" on="1"/>
        <pt x="667" y="1227" on="1"/>
        <pt x="667" y="213" on="1"/>
        <pt x="826" y="213" on="1"/>
        <pt x="826" y="-2" on="1"/>
        <pt x="293" y="-2" on="1"/>
        <pt x="293" y="213" on="1"/>
        <pt x="452" y="213" on="1"/>
        <pt x="452" y="1227" on="1"/>
      </contour>
    </TTGlyph>
    <TTGlyph name="J" xMin="135" yMin="-2" xMax="984" yMax="1442">
      <contour>
        <pt x="135" y="203" on="1"/>
        <pt x="135" y="418" on="1"/>
        <pt x="350" y="418" on="1"/>
        <pt x="350" y="213" on="1"/>
        <pt x="769" y="213" on="1"/>
        <pt x="769" y="1442" on="1"/>
        <pt x="984" y="1442" on="1"/>
        <pt x="984" y="203" on="1"/>
        <pt x="826" y="203" on="1"/>
        <pt x="826" y="-2" on="1"/>
        <pt x="293" y="-2" on="1"/>
        <pt x="293" y="203" on="1"/>
      </contour>
    </TTGlyph>
    <TTGlyph name="K" xMin="135" yMin="-2" xMax="984" yMax="1442">
      <contour>
        <pt x="350" y="1442" on="1"/>
        <pt x="350" y="827" on="1"/>
        <pt x="452" y="827" on="1"/>
        <pt x="452" y="1032" on="1"/>
        <pt x="611" y="1032" on="1"/>
        <pt x="611" y="1237" on="1"/>
        <pt x="769" y="1237" on="1"/>
        <pt x="769" y="1442" on="1"/>
        <pt x="984" y="1442" on="1"/>
        <pt x="984" y="1227" on="1"/>
        <pt x="826" y="1227" on="1"/>
        <pt x="826" y="1022" on="1"/>
        <pt x="667" y="1022" on="1"/>
        <pt x="667" y="817" on="1"/>
        <pt x="508" y="817" on="1"/>
        <pt x="508" y="623" on="1"/>
        <pt x="667" y="623" on="1"/>
        <pt x="667" y="418" on="1"/>
        <pt x="826" y="418" on="1"/>
        <pt x="826" y="213" on="1"/>
        <pt x="984" y="213" on="1"/>
        <pt x="984" y="-2" on="1"/>
        <pt x="769" y="-2" on="1"/>
        <pt x="769" y="203" on="1"/>
        <pt x="611" y="203" on="1"/>
        <pt x="611" y="408" on="1"/>
        <pt x="452" y="408" on="1"/>
        <pt x="452" y="612" on="1"/>
        <pt x="350" y="612" on="1"/>
        <pt x="350" y="-2" on="1"/>
        <pt x="135" y="-2" on="1"/>
        <pt x="135" y="1442" on="1"/>
      </contour>
    </TTGlyph>
    <TTGlyph name="L" xMin="135" yMin="-2" xMax="984" yMax="1442">
      <contour>
        <pt x="350" y="1442" on="1"/>
        <pt x="350" y="213" on="1"/>
        <pt x="984" y="213" on="1"/>
        <pt x="984" y="-2" on="1"/>
        <pt x="135" y="-2" on="1"/>
        <pt x="135" y="1442" on="1"/>
      </contour>
    </TTGlyph>
    <TTGlyph name="M" xMin="135" yMin="-2" xMax="984" yMax="1442">
      <contour>
        <pt x="135" y="-2" on="1"/>
        <pt x="135" y="1442" on="1"/>
        <pt x="350" y="1442" on="1"/>
        <pt x="350" y="1237" on="1"/>
        <pt x="508" y="1237" on="1"/>
        <pt x="508" y="1032" on="1"/>
        <pt x="611" y="1032" on="1"/>
        <pt x="611" y="1237" on="1"/>
        <pt x="769" y="1237" on="1"/>
        <pt x="769" y="1442" on="1"/>
        <pt x="984" y="1442" on="1"/>
        <pt x="984" y="-2" on="1"/>
        <pt x="769" y="-2" on="1"/>
        <pt x="769" y="1022" on="1"/>
        <pt x="667" y="1022" on="1"/>
        <pt x="667" y="612" on="1"/>
        <pt x="452" y="612" on="1"/>
        <pt x="452" y="1022" on="1"/>
        <pt x="350" y="1022" on="1"/>
        <pt x="350" y="-2" on="1"/>
      </contour>
    </TTGlyph>
    <TTGlyph name="N" xMin="135" yMin="-2" xMax="984" yMax="1442">
      <contour>
        <pt x="350" y="1442" on="1"/>
        <pt x="350" y="1032" on="1"/>
        <pt x="508" y="1032" on="1"/>
        <pt x="508" y="827" on="1"/>
        <pt x="667" y="827" on="1"/>
        <pt x="667" y="623" on="1"/>
        <pt x="769" y="623" on="1"/>
        <pt x="769" y="1442" on="1"/>
        <pt x="984" y="1442" on="1"/>
        <pt x="984" y="-2" on="1"/>
        <pt x="769" y="-2" on="1"/>
        <pt x="769" y="408" on="1"/>
        <pt x="611" y="408" on="1"/>
        <pt x="611" y="612" on="1"/>
        <pt x="452" y="612" on="1"/>
        <pt x="452" y="817" on="1"/>
        <pt x="350" y="817" on="1"/>
        <pt x="350" y="-2" on="1"/>
        <pt x="135" y="-2" on="1"/>
        <pt x="135" y="1442" on="1"/>
      </contour>
    </TTGlyph>
    <TTGlyph name="O" xMin="135" yMin="-2" xMax="984" yMax="1442">
      <contour>
        <pt x="769" y="1227" on="1"/>
        <pt x="350" y="1227" on="1"/>
        <pt x="350" y="213" on="1"/>
        <pt x="769" y="213" on="1"/>
      </contour>
      <contour>
        <pt x="293" y="1442" on="1"/>
        <pt x="826" y="1442" on="1"/>
        <pt x="826" y="1237" on="1"/>
        <pt x="984" y="1237" on="1"/>
        <pt x="984" y="203" on="1"/>
        <pt x="826" y="203" on="1"/>
        <pt x="826" y="-2" on="1"/>
        <pt x="293" y="-2" on="1"/>
        <pt x="293" y="203" on="1"/>
        <pt x="135" y="203" on="1"/>
        <pt x="135" y="1237" on="1"/>
        <pt x="293" y="1237" on="1"/>
      </contour>
    </TTGlyph>
    <TTGlyph name="P" xMin="135" yMin="-2" xMax="984" yMax="1442">
      <contour>
        <pt x="135" y="1442" on="1"/>
        <pt x="826" y="1442" on="1"/>
        <pt x="826" y="1237" on="1"/>
        <pt x="984" y="1237" on="1"/>
        <pt x="984" y="817" on="1"/>
        <pt x="826" y="817" on="1"/>
        <pt x="826" y="612" on="1"/>
        <pt x="350" y="612" on="1"/>
        <pt x="350" y="-2" on="1"/>
        <pt x="135" y="-2" on="1"/>
      </contour>
      <contour>
        <pt x="769" y="1227" on="1"/>
        <pt x="350" y="1227" on="1"/>
        <pt x="350" y="827" on="1"/>
        <pt x="769" y="827" on="1"/>
      </contour>
    </TTGlyph>
    <TTGlyph name="Q" xMin="135" yMin="-2" xMax="984" yMax="1442">
      <contour>
        <pt x="452" y="408" on="1"/>
        <pt x="452" y="623" on="1"/>
        <pt x="667" y="623" on="1"/>
        <pt x="667" y="418" on="1"/>
        <pt x="769" y="418" on="1"/>
        <pt x="769" y="1227" on="1"/>
        <pt x="350" y="1227" on="1"/>
        <pt x="350" y="213" on="1"/>
        <pt x="611" y="213" on="1"/>
        <pt x="611" y="408" on="1"/>
      </contour>
      <contour>
        <pt x="293" y="1442" on="1"/>
        <pt x="826" y="1442" on="1"/>
        <pt x="826" y="1237" on="1"/>
        <pt x="984" y="1237" on="1"/>
        <pt x="984" y="408" on="1"/>
        <pt x="826" y="408" on="1"/>
        <pt x="826" y="213" on="1"/>
        <pt x="984" y="213" on="1"/>
        <pt x="984" y="-2" on="1"/>
        <pt x="769" y="-2" on="1"/>
        <pt x="769" y="203" on="1"/>
        <pt x="667" y="203" on="1"/>
        <pt x="667" y="-2" on="1"/>
        <pt x="293" y="-2" on="1"/>
        <pt x="293" y="203" on="1"/>
        <pt x="135" y="203" on="1"/>
        <pt x="135" y="1237" on="1"/>
        <pt x="293" y="1237" on="1"/>
      </contour>
    </TTGlyph>
    <TTGlyph name="R" xMin="135" yMin="-2" xMax="984" yMax="1442">
      <contour>
        <pt x="135" y="1442" on="1"/>
        <pt x="826" y="1442" on="1"/>
        <pt x="826" y="1237" on="1"/>
        <pt x="984" y="1237" on="1"/>
        <pt x="984" y="817" on="1"/>
        <pt x="826" y="817" on="1"/>
        <pt x="826" y="612" on="1"/>
        <pt x="667" y="612" on="1"/>
        <pt x="667" y="418" on="1"/>
        <pt x="826" y="418" on="1"/>
        <pt x="826" y="213" on="1"/>
        <pt x="984" y="213" on="1"/>
        <pt x="984" y="-2" on="1"/>
        <pt x="769" y="-2" on="1"/>
        <pt x="769" y="203" on="1"/>
        <pt x="611" y="203" on="1"/>
        <pt x="611" y="408" on="1"/>
        <pt x="452" y="408" on="1"/>
        <pt x="452" y="612" on="1"/>
        <pt x="350" y="612" on="1"/>
        <pt x="350" y="-2" on="1"/>
        <pt x="135" y="-2" on="1"/>
      </contour>
      <contour>
        <pt x="769" y="1227" on="1"/>
        <pt x="350" y="1227" on="1"/>
        <pt x="350" y="827" on="1"/>
        <pt x="769" y="827" on="1"/>
      </contour>
    </TTGlyph>
    <TTGlyph name="S" xMin="135" yMin="-2" xMax="984" yMax="1442">
      <contour>
        <pt x="135" y="203" on="1"/>
        <pt x="135" y="418" on="1"/>
        <pt x="350" y="418" on="1"/>
        <pt x="350" y="213" on="1"/>
        <pt x="769" y="213" on="1"/>
        <pt x="769" y="612" on="1"/>
        <pt x="293" y="612" on="1"/>
        <pt x="293" y="817" on="1"/>
        <pt x="135" y="817" on="1"/>
        <pt x="135" y="1237" on="1"/>
        <pt x="293" y="1237" on="1"/>
        <pt x="293" y="1442" on="1"/>
        <pt x="826" y="1442" on="1"/>
        <pt x="826" y="1237" on="1"/>
        <pt x="984" y="1237" on="1"/>
        <pt x="984" y="1022" on="1"/>
        <pt x="769" y="1022" on="1"/>
        <pt x="769" y="1227" on="1"/>
        <pt x="350" y="1227" on="1"/>
        <pt x="350" y="827" on="1"/>
        <pt x="826" y="827" on="1"/>
        <pt x="826" y="623" on="1"/>
        <pt x="984" y="623" on="1"/>
        <pt x="984" y="203" on="1"/>
        <pt x="826" y="203" on="1"/>
        <pt x="826" y="-2" on="1"/>
        <pt x="293" y="-2" on="1"/>
        <pt x="293" y="203" on="1"/>
      </contour>
    </TTGlyph>
    <TTGlyph name="T" xMin="135" yMin="-2" xMax="984" yMax="1442">
      <contour>
        <pt x="135" y="1227" on="1"/>
        <pt x="135" y="1442" on="1"/>
        <pt x="984" y="1442" on="1"/>
        <pt x="984" y="1227" on="1"/>
        <pt x="667" y="1227" on="1"/>
        <pt x="667" y="-2" on="1"/>
        <pt x="452" y="-2" on="1"/>
        <pt x="452" y="1227" on="1"/>
      </contour>
    </TTGlyph>
    <TTGlyph name="U" xMin="135" yMin="-2" xMax="984" yMax="1442">
      <contour>
        <pt x="350" y="1442" on="1"/>
        <pt x="350" y="213" on="1"/>
        <pt x="769" y="213" on="1"/>
        <pt x="769" y="1442" on="1"/>
        <pt x="984" y="1442" on="1"/>
        <pt x="984" y="203" on="1"/>
        <pt x="826" y="203" on="1"/>
        <pt x="826" y="-2" on="1"/>
        <pt x="293" y="-2" on="1"/>
        <pt x="293" y="203" on="1"/>
        <pt x="135" y="203" on="1"/>
        <pt x="135" y="1442" on="1"/>
      </contour>
    </TTGlyph>
    <TTGlyph name="V" xMin="135" yMin="-2" xMax="984" yMax="1442">
      <contour>
        <pt x="350" y="1442" on="1"/>
        <pt x="350" y="418" on="1"/>
        <pt x="508" y="418" on="1"/>
        <pt x="508" y="213" on="1"/>
        <pt x="611" y="213" on="1"/>
        <pt x="611" y="418" on="1"/>
        <pt x="769" y="418" on="1"/>
        <pt x="769" y="1442" on="1"/>
        <pt x="984" y="1442" on="1"/>
        <pt x="984" y="408" on="1"/>
        <pt x="826" y="408" on="1"/>
        <pt x="826" y="203" on="1"/>
        <pt x="667" y="203" on="1"/>
        <pt x="667" y="-2" on="1"/>
        <pt x="452" y="-2" on="1"/>
        <pt x="452" y="203" on="1"/>
        <pt x="293" y="203" on="1"/>
        <pt x="293" y="408" on="1"/>
        <pt x="135" y="408" on="1"/>
        <pt x="135" y="1442" on="1"/>
      </contour>
    </TTGlyph>
    <TTGlyph name="W" xMin="135" yMin="-2" xMax="984" yMax="1442">
      <contour>
        <pt x="350" y="1442" on="1"/>
        <pt x="350" y="418" on="1"/>
        <pt x="452" y="418" on="1"/>
        <pt x="452" y="827" on="1"/>
        <pt x="667" y="827" on="1"/>
        <pt x="667" y="418" on="1"/>
        <pt x="769" y="418" on="1"/>
        <pt x="769" y="1442" on="1"/>
        <pt x="984" y="1442" on="1"/>
        <pt x="984" y="-2" on="1"/>
        <pt x="769" y="-2" on="1"/>
        <pt x="769" y="203" on="1"/>
        <pt x="667" y="203" on="1"/>
        <pt x="350" y="203" on="1"/>
        <pt x="350" y="-2" on="1"/>
        <pt x="135" y="-2" on="1"/>
        <pt x="135" y="1442" on="1"/>
      </contour>
    </TTGlyph>
    <TTGlyph name="X" xMin="135" yMin="-2" xMax="984" yMax="1442">
      <contour>
        <pt x="350" y="1442" on="1"/>
        <pt x="350" y="1032" on="1"/>
        <pt x="508" y="1032" on="1"/>
        <pt x="508" y="827" on="1"/>
        <pt x="611" y="827" on="1"/>
        <pt x="611" y="1032" on="1"/>
        <pt x="769" y="1032" on="1"/>
        <pt x="769" y="1442" on="1"/>
        <pt x="984" y="1442" on="1"/>
        <pt x="984" y="1022" on="1"/>
        <pt x="826" y="1022" on="1"/>
        <pt x="826" y="817" on="1"/>
        <pt x="667" y="817" on="1"/>
        <pt x="667" y="623" on="1"/>
        <pt x="826" y="623" on="1"/>
        <pt x="826" y="418" on="1"/>
        <pt x="984" y="418" on="1"/>
        <pt x="984" y="-2" on="1"/>
        <pt x="769" y="-2" on="1"/>
        <pt x="769" y="408" on="1"/>
        <pt x="611" y="408" on="1"/>
        <pt x="611" y="612" on="1"/>
        <pt x="508" y="612" on="1"/>
        <pt x="508" y="408" on="1"/>
        <pt x="350" y="408" on="1"/>
        <pt x="350" y="-2" on="1"/>
        <pt x="135" y="-2" on="1"/>
        <pt x="135" y="418" on="1"/>
        <pt x="293" y="418" on="1"/>
        <pt x="293" y="623" on="1"/>
        <pt x="452" y="623" on="1"/>
        <pt x="452" y="817" on="1"/>
        <pt x="293" y="817" on="1"/>
        <pt x="293" y="1022" on="1"/>
        <pt x="135" y="1022" on="1"/>
        <pt x="135" y="1442" on="1"/>
      </contour>
    </TTGlyph>
    <TTGlyph name="Y" xMin="135" yMin="-2" xMax="984" yMax="1442">
      <contour>
        <pt x="350" y="1442" on="1"/>
        <pt x="350" y="1032" on="1"/>
        <pt x="508" y="1032" on="1"/>
        <pt x="508" y="827" on="1"/>
        <pt x="611" y="827" on="1"/>
        <pt x="611" y="1032" on="1"/>
        <pt x="769" y="1032" on="1"/>
        <pt x="769" y="1442" on="1"/>
        <pt x="984" y="1442" on="1"/>
        <pt x="984" y="1022" on="1"/>
        <pt x="826" y="1022" on="1"/>
        <pt x="826" y="817" on="1"/>
        <pt x="667" y="817" on="1"/>
        <pt x="667" y="-2" on="1"/>
        <pt x="452" y="-2" on="1"/>
        <pt x="452" y="817" on="1"/>
        <pt x="293" y="817" on="1"/>
        <pt x="293" y="1022" on="1"/>
        <pt x="135" y="1022" on="1"/>
        <pt x="135" y="1442" on="1"/>
      </contour>
    </TTGlyph>
    <TTGlyph name="Z" xMin="135" yMin="-2" xMax="984" yMax="1442">
      <contour>
        <pt x="135" y="1227" on="1"/>
        <pt x="135" y="1442" on="1"/>
        <pt x="984" y="1442" on="1"/>
        <pt x="984" y="1022" on="1"/>
        <pt x="826" y="1022" on="1"/>
        <pt x="826" y="817" on="1"/>
        <pt x="667" y="817" on="1"/>
        <pt x="667" y="612" on="1"/>
        <pt x="508" y="612" on="1"/>
        <pt x="508" y="408" on="1"/>
        <pt x="350" y="408" on="1"/>
        <pt x="350" y="213" on="1"/>
        <pt x="984" y="213" on="1"/>
        <pt x="984" y="-2" on="1"/>
        <pt x="135" y="-2" on="1"/>
        <pt x="135" y="418" on="1"/>
        <pt x="293" y="418" on="1"/>
        <pt x="293" y="623" on="1"/>
        <pt x="452" y="623" on="1"/>
        <pt x="452" y="827" on="1"/>
        <pt x="611" y="827" on="1"/>
        <pt x="611" y="1032" on="1"/>
        <pt x="769" y="1032" on="1"/>
        <pt x="769" y="1227" on="1"/>
      </contour>
    </TTGlyph>
    <TTGlyph name="a" xMin="135" yMin="-2" xMax="984" yMax="1032">
      <contour>
        <pt x="611" y="817" on="1"/>
        <pt x="350" y="817" on="1"/>
        <pt x="350" y="213" on="1"/>
        <pt x="611" y="213" on="1"/>
        <pt x="611" y="418" on="1"/>
        <pt x="769" y="418" on="1"/>
        <pt x="769" y="612" on="1"/>
        <pt x="611" y="612" on="1"/>
      </contour>
      <contour>
        <pt x="293" y="1032" on="1"/>
        <pt x="667" y="1032" on="1"/>
        <pt x="667" y="827" on="1"/>
        <pt x="769" y="827" on="1"/>
        <pt x="769" y="1032" on="1"/>
        <pt x="984" y="1032" on="1"/>
        <pt x="984" y="-2" on="1"/>
        <pt x="769" y="-2" on="1"/>
        <pt x="769" y="203" on="1"/>
        <pt x="667" y="203" on="1"/>
        <pt x="667" y="-2" on="1"/>
        <pt x="293" y="-2" on="1"/>
        <pt x="293" y="203" on="1"/>
        <pt x="135" y="203" on="1"/>
        <pt x="135" y="827" on="1"/>
        <pt x="293" y="827" on="1"/>
      </contour>
    </TTGlyph>
    <TTGlyph name="ampersand" xMin="135" yMin="-2" xMax="984" yMax="1442">
      <contour>
        <pt x="508" y="1227" on="1"/>
        <pt x="508" y="827" on="1"/>
        <pt x="611" y="827" on="1"/>
        <pt x="611" y="1227" on="1"/>
      </contour>
      <contour>
        <pt x="452" y="1237" on="1"/>
        <pt x="452" y="1442" on="1"/>
        <pt x="667" y="1442" on="1"/>
        <pt x="667" y="1237" on="1"/>
        <pt x="826" y="1237" on="1"/>
        <pt x="826" y="817" on="1"/>
        <pt x="667" y="817" on="1"/>
        <pt x="667" y="418" on="1"/>
        <pt x="769" y="418" on="1"/>
        <pt x="769" y="623" on="1"/>
        <pt x="984" y="623" on="1"/>
        <pt x="984" y="408" on="1"/>
        <pt x="826" y="408" on="1"/>
        <pt x="826" y="213" on="1"/>
        <pt x="984" y="213" on="1"/>
        <pt x="984" y="-2" on="1"/>
        <pt x="769" y="-2" on="1"/>
        <pt x="769" y="203" on="1"/>
        <pt x="667" y="203" on="1"/>
        <pt x="667" y="-2" on="1"/>
        <pt x="293" y="-2" on="1"/>
        <pt x="293" y="203" on="1"/>
        <pt x="135" y="203" on="1"/>
        <pt x="135" y="623" on="1"/>
        <pt x="293" y="623" on="1"/>
        <pt x="293" y="1237" on="1"/>
      </contour>
      <contour>
        <pt x="350" y="612" on="1"/>
        <pt x="350" y="213" on="1"/>
        <pt x="611" y="213" on="1"/>
        <pt x="611" y="408" on="1"/>
        <pt x="452" y="408" on="1"/>
        <pt x="452" y="612" on="1"/>
      </contour>
    </TTGlyph>
    <TTGlyph name="asciicircum" xMin="135" yMin="817" xMax="984" yMax="1442">
      <contour>
        <pt x="135" y="817" on="1"/>
        <pt x="135" y="1032" on="1"/>
        <pt x="293" y="1032" on="1"/>
        <pt x="293" y="1237" on="1"/>
        <pt x="452" y="1237" on="1"/>
        <pt x="452" y="1442" on="1"/>
        <pt x="667" y="1442" on="1"/>
        <pt x="667" y="1237" on="1"/>
        <pt x="826" y="1237" on="1"/>
        <pt x="826" y="1032" on="1"/>
        <pt x="984" y="1032" on="1"/>
        <pt x="984" y="817" on="1"/>
        <pt x="769" y="817" on="1"/>
        <pt x="769" y="1022" on="1"/>
        <pt x="611" y="1022" on="1"/>
        <pt x="611" y="1227" on="1"/>
        <pt x="508" y="1227" on="1"/>
        <pt x="508" y="1022" on="1"/>
        <pt x="350" y="1022" on="1"/>
        <pt x="350" y="817" on="1"/>
      </contour>
    </TTGlyph>
    <TTGlyph name="asciitilde" xMin="135" yMin="817" xMax="984" yMax="1442">
      <contour>
        <pt x="135" y="1022" on="1"/>
        <pt x="135" y="1237" on="1"/>
        <pt x="293" y="1237" on="1"/>
        <pt x="293" y="1442" on="1"/>
        <pt x="508" y="1442" on="1"/>
        <pt x="508" y="1237" on="1"/>
        <pt x="667" y="1237" on="1"/>
        <pt x="667" y="1032" on="1"/>
        <pt x="769" y="1032" on="1"/>
        <pt x="769" y="1237" on="1"/>
        <pt x="984" y="1237" on="1"/>
        <pt x="984" y="1022" on="1"/>
        <pt x="826" y="1022" on="1"/>
        <pt x="826" y="817" on="1"/>
        <pt x="611" y="817" on="1"/>
        <pt x="611" y="1022" on="1"/>
        <pt x="452" y="1022" on="1"/>
        <pt x="452" y="1227" on="1"/>
        <pt x="350" y="1227" on="1"/>
        <pt x="350" y="1022" on="1"/>
      </contour>
    </TTGlyph>
    <TTGlyph name="asterisk" xMin="135" yMin="203" xMax="984" yMax="1237">
      <contour>
        <pt x="135" y="817" on="1"/>
        <pt x="135" y="1032" on="1"/>
        <pt x="350" y="1032" on="1"/>
        <pt x="350" y="827" on="1"/>
        <pt x="452" y="827" on="1"/>
        <pt x="452" y="1237" on="1"/>
        <pt x="667" y="1237" on="1"/>
        <pt x="667" y="827" on="1"/>
        <pt x="769" y="827" on="1"/>
        <pt x="769" y="1032" on="1"/>
        <pt x="984" y="1032" on="1"/>
        <pt x="984" y="817" on="1"/>
        <pt x="826" y="817" on="1"/>
        <pt x="826" y="623" on="1"/>
        <pt x="984" y="623" on="1"/>
        <pt x="984" y="408" on="1"/>
        <pt x="769" y="408" on="1"/>
        <pt x="769" y="612" on="1"/>
        <pt x="667" y="612" on="1"/>
        <pt x="667" y="203" on="1"/>
        <pt x="452" y="203" on="1"/>
        <pt x="452" y="612" on="1"/>
        <pt x="350" y="612" on="1"/>
        <pt x="350" y="408" on="1"/>
        <pt x="135" y="408" on="1"/>
        <pt x="135" y="623" on="1"/>
        <pt x="293" y="623" on="1"/>
        <pt x="293" y="817" on="1"/>
      </contour>
    </TTGlyph>
    <TTGlyph name="at" xMin="135" yMin="-2" xMax="984" yMax="1442">
      <contour>
        <pt x="769" y="1227" on="1"/>
        <pt x="508" y="1227" on="1"/>
        <pt x="508" y="1032" on="1"/>
        <pt x="667" y="1032" on="1"/>
        <pt x="667" y="827" on="1"/>
        <pt x="769" y="827" on="1"/>
      </contour>
      <contour>
        <pt x="452" y="1442" on="1"/>
        <pt x="826" y="1442" on="1"/>
        <pt x="826" y="1237" on="1"/>
        <pt x="984" y="1237" on="1"/>
        <pt x="984" y="612" on="1"/>
        <pt x="667" y="612" on="1"/>
        <pt x="667" y="408" on="1"/>
        <pt x="452" y="408" on="1"/>
        <pt x="452" y="1022" on="1"/>
        <pt x="350" y="1022" on="1"/>
        <pt x="350" y="213" on="1"/>
        <pt x="984" y="213" on="1"/>
        <pt x="984" y="-2" on="1"/>
        <pt x="293" y="-2" on="1"/>
        <pt x="293" y="203" on="1"/>
        <pt x="135" y="203" on="1"/>
        <pt x="135" y="1032" on="1"/>
        <pt x="293" y="1032" on="1"/>
        <pt x="293" y="1237" on="1"/>
        <pt x="452" y="1237" on="1"/>
      </contour>
    </TTGlyph>
    <TTGlyph name="b" xMin="135" yMin="-2" xMax="984" yMax="1442">
      <contour>
        <pt x="350" y="1442" on="1"/>
        <pt x="350" y="827" on="1"/>
        <pt x="452" y="827" on="1"/>
        <pt x="452" y="1032" on="1"/>
        <pt x="826" y="1032" on="1"/>
        <pt x="826" y="827" on="1"/>
        <pt x="984" y="827" on="1"/>
        <pt x="984" y="203" on="1"/>
        <pt x="826" y="203" on="1"/>
        <pt x="826" y="-2" on="1"/>
        <pt x="452" y="-2" on="1"/>
        <pt x="452" y="203" on="1"/>
        <pt x="350" y="203" on="1"/>
        <pt x="350" y="-2" on="1"/>
        <pt x="135" y="-2" on="1"/>
        <pt x="135" y="1442" on="1"/>
      </contour>
      <contour>
        <pt x="769" y="817" on="1"/>
        <pt x="508" y="817" on="1"/>
        <pt x="508" y="612" on="1"/>
        <pt x="350" y="612" on="1"/>
        <pt x="350" y="418" on="1"/>
        <pt x="508" y="418" on="1"/>
        <pt x="508" y="213" on="1"/>
        <pt x="769" y="213" on="1"/>
      </contour>
    </TTGlyph>
    <TTGlyph name="backslash" xMin="135" yMin="-2" xMax="984" yMax="1442">
      <contour>
        <pt x="350" y="1442" on="1"/>
        <pt x="350" y="1032" on="1"/>
        <pt x="508" y="1032" on="1"/>
        <pt x="508" y="827" on="1"/>
        <pt x="667" y="827" on="1"/>
        <pt x="667" y="623" on="1"/>
        <pt x="826" y="623" on="1"/>
        <pt x="826" y="418" on="1"/>
        <pt x="984" y="418" on="1"/>
        <pt x="984" y="-2" on="1"/>
        <pt x="769" y="-2" on="1"/>
        <pt x="769" y="408" on="1"/>
        <pt x="611" y="408" on="1"/>
        <pt x="611" y="612" on="1"/>
        <pt x="452" y="612" on="1"/>
        <pt x="452" y="817" on="1"/>
        <pt x="293" y="817" on="1"/>
        <pt x="293" y="1022" on="1"/>
        <pt x="135" y="1022" on="1"/>
        <pt x="135" y="1442" on="1"/>
      </contour>
    </TTGlyph>
    <TTGlyph name="bar" xMin="452" yMin="-2" xMax="667" yMax="1442">
      <contour>
        <pt x="667" y="1442" on="1"/>
        <pt x="667" y="817" on="1"/>
        <pt x="452" y="817" on="1"/>
        <pt x="452" y="1442" on="1"/>
      </contour>
      <contour>
        <pt x="667" y="623" on="1"/>
        <pt x="667" y="-2" on="1"/>
        <pt x="452" y="-2" on="1"/>
        <pt x="452" y="623" on="1"/>
      </contour>
    </TTGlyph>
    <TTGlyph name="braceleft" xMin="135" yMin="-2" xMax="984" yMax="1442">
      <contour>
        <pt x="135" y="612" on="1"/>
        <pt x="135" y="827" on="1"/>
        <pt x="452" y="827" on="1"/>
        <pt x="452" y="1237" on="1"/>
        <pt x="611" y="1237" on="1"/>
        <pt x="611" y="1442" on="1"/>
        <pt x="984" y="1442" on="1"/>
        <pt x="984" y="1227" on="1"/>
        <pt x="667" y="1227" on="1"/>
        <pt x="667" y="817" on="1"/>
        <pt x="508" y="817" on="1"/>
        <pt x="508" y="623" on="1"/>
        <pt x="667" y="623" on="1"/>
        <pt x="667" y="213" on="1"/>
        <pt x="984" y="213" on="1"/>
        <pt x="984" y="-2" on="1"/>
        <pt x="611" y="-2" on="1"/>
        <pt x="611" y="203" on="1"/>
        <pt x="452" y="203" on="1"/>
        <pt x="452" y="612" on="1"/>
      </contour>
    </TTGlyph>
    <TTGlyph name="braceright" xMin="135" yMin="-2" xMax="984" yMax="1442">
      <contour>
        <pt x="135" y="1227" on="1"/>
        <pt x="135" y="1442" on="1"/>
        <pt x="508" y="1442" on="1"/>
        <pt x="508" y="1237" on="1"/>
        <pt x="667" y="1237" on="1"/>
        <pt x="667" y="827" on="1"/>
        <pt x="984" y="827" on="1"/>
        <pt x="984" y="612" on="1"/>
        <pt x="667" y="612" on="1"/>
        <pt x="667" y="203" on="1"/>
        <pt x="508" y="203" on="1"/>
        <pt x="508" y="-2" on="1"/>
        <pt x="135" y="-2" on="1"/>
        <pt x="135" y="213" on="1"/>
        <pt x="452" y="213" on="1"/>
        <pt x="452" y="623" on="1"/>
        <pt x="611" y="623" on="1"/>
        <pt x="611" y="817" on="1"/>
        <pt x="452" y="817" on="1"/>
        <pt x="452" y="1227" on="1"/>
      </contour>
    </TTGlyph>
    <TTGlyph name="bracketleft" xMin="452" yMin="-2" xMax="984" yMax="1442">
      <contour>
        <pt x="452" y="1442" on="1"/>
        <pt x="984" y="1442" on="1"/>
        <pt x="984" y="1227" on="1"/>
        <pt x="667" y="1227" on="1"/>
        <pt x="667" y="213" on="1"/>
        <pt x="984" y="213" on="1"/>
        <pt x="984" y="-2" on="1"/>
        <pt x="452" y="-2" on="1"/>
      </contour>
    </TTGlyph>
    <TTGlyph name="bracketright" xMin="135" yMin="-2" xMax="667" yMax="1442">
      <contour>
        <pt x="135" y="1227" on="1"/>
        <pt x="135" y="1442" on="1"/>
        <pt x="667" y="1442" on="1"/>
        <pt x="667" y="-2" on="1"/>
        <pt x="135" y="-2" on="1"/>
        <pt x="135" y="213" on="1"/>
        <pt x="452" y="213" on="1"/>
        <pt x="452" y="1227" on="1"/>
      </contour>
    </TTGlyph>
    <TTGlyph name="c" xMin="135" yMin="-2" xMax="984" yMax="1032">
      <contour>
        <pt x="984" y="817" on="1"/>
        <pt x="350" y="817" on="1"/>
        <pt x="350" y="213" on="1"/>
        <pt x="984" y="213" on="1"/>
        <pt x="984" y="-2" on="1"/>
        <pt x="293" y="-2" on="1"/>
        <pt x="293" y="203" on="1"/>
        <pt x="135" y="203" on="1"/>
        <pt x="135" y="827" on="1"/>
        <pt x="293" y="827" on="1"/>
        <pt x="293" y="1032" on="1"/>
        <pt x="984" y="1032" on="1"/>
      </contour>
    </TTGlyph>
    <TTGlyph name="colon" xMin="452" yMin="203" xMax="667" yMax="1032">
      <contour>
        <pt x="452" y="817" on="1"/>
        <pt x="452" y="1032" on="1"/>
        <pt x="667" y="1032" on="1"/>
        <pt x="667" y="817" on="1"/>
      </contour>
      <contour>
        <pt x="452" y="203" on="1"/>
        <pt x="452" y="418" on="1"/>
        <pt x="667" y="418" on="1"/>
        <pt x="667" y="203" on="1"/>
      </contour>
    </TTGlyph>
    <TTGlyph name="comma" xMin="293" yMin="-412" xMax="667" yMax="213">
      <contour>
        <pt x="293" y="-412" on="1"/>
        <pt x="293" y="-197" on="1"/>
        <pt x="452" y="-197" on="1"/>
        <pt x="452" y="213" on="1"/>
        <pt x="667" y="213" on="1"/>
        <pt x="667" y="-207" on="1"/>
        <pt x="508" y="-207" on="1"/>
        <pt x="508" y="-412" on="1"/>
      </contour>
    </TTGlyph>
    <TTGlyph name="d" xMin="135" yMin="-2" xMax="984" yMax="1442">
      <contour>
        <pt x="984" y="1442" on="1"/>
        <pt x="984" y="-2" on="1"/>
        <pt x="769" y="-2" on="1"/>
        <pt x="769" y="203" on="1"/>
        <pt x="667" y="203" on="1"/>
        <pt x="667" y="-2" on="1"/>
        <pt x="293" y="-2" on="1"/>
        <pt x="293" y="203" on="1"/>
        <pt x="135" y="203" on="1"/>
        <pt x="135" y="827" on="1"/>
        <pt x="293" y="827" on="1"/>
        <pt x="293" y="1032" on="1"/>
        <pt x="667" y="1032" on="1"/>
        <pt x="667" y="827" on="1"/>
        <pt x="769" y="827" on="1"/>
        <pt x="769" y="1442" on="1"/>
      </contour>
      <contour>
        <pt x="611" y="817" on="1"/>
        <pt x="350" y="817" on="1"/>
        <pt x="350" y="213" on="1"/>
        <pt x="611" y="213" on="1"/>
        <pt x="611" y="418" on="1"/>
        <pt x="769" y="418" on="1"/>
        <pt x="769" y="612" on="1"/>
        <pt x="611" y="612" on="1"/>
      </contour>
    </TTGlyph>
    <TTGlyph name="dollar" xMin="135" yMin="-2" xMax="984" yMax="1442">
      <contour>
        <pt x="135" y="817" on="1"/>
        <pt x="135" y="1032" on="1"/>
        <pt x="293" y="1032" on="1"/>
        <pt x="293" y="1237" on="1"/>
        <pt x="452" y="1237" on="1"/>
        <pt x="452" y="1442" on="1"/>
        <pt x="667" y="1442" on="1"/>
        <pt x="667" y="1237" on="1"/>
        <pt x="984" y="1237" on="1"/>
        <pt x="984" y="1022" on="1"/>
        <pt x="667" y="1022" on="1"/>
        <pt x="667" y="827" on="1"/>
        <pt x="826" y="827" on="1"/>
        <pt x="826" y="623" on="1"/>
        <pt x="984" y="623" on="1"/>
        <pt x="984" y="408" on="1"/>
        <pt x="826" y="408" on="1"/>
        <pt x="826" y="203" on="1"/>
        <pt x="667" y="203" on="1"/>
        <pt x="667" y="-2" on="1"/>
        <pt x="452" y="-2" on="1"/>
        <pt x="452" y="203" on="1"/>
        <pt x="350" y="203" on="1"/>
        <pt x="293" y="203" on="1"/>
        <pt x="135" y="203" on="1"/>
        <pt x="135" y="418" on="1"/>
        <pt x="452" y="418" on="1"/>
        <pt x="452" y="612" on="1"/>
        <pt x="293" y="612" on="1"/>
        <pt x="293" y="817" on="1"/>
      </contour>
      <contour>
        <pt x="350" y="1022" on="1"/>
        <pt x="350" y="827" on="1"/>
        <pt x="452" y="827" on="1"/>
        <pt x="452" y="1022" on="1"/>
      </contour>
      <contour>
        <pt x="667" y="612" on="1"/>
        <pt x="667" y="418" on="1"/>
        <pt x="769" y="418" on="1"/>
        <pt x="769" y="612" on="1"/>
      </contour>
    </TTGlyph>
    <TTGlyph name="e" xMin="135" yMin="-2" xMax="984" yMax="1032">
      <contour>
        <pt x="769" y="817" on="1"/>
        <pt x="350" y="817" on="1"/>
        <pt x="350" y="623" on="1"/>
        <pt x="769" y="623" on="1"/>
      </contour>
      <contour>
        <pt x="293" y="1032" on="1"/>
        <pt x="826" y="1032" on="1"/>
        <pt x="826" y="827" on="1"/>
        <pt x="984" y="827" on="1"/>
        <pt x="984" y="408" on="1"/>
        <pt x="350" y="408" on="1"/>
        <pt x="350" y="213" on="1"/>
        <pt x="826" y="213" on="1"/>
        <pt x="826" y="-2" on="1"/>
        <pt x="293" y="-2" on="1"/>
        <pt x="293" y="203" on="1"/>
        <pt x="135" y="203" on="1"/>
        <pt x="135" y="827" on="1"/>
        <pt x="293" y="827" on="1"/>
      </contour>
    </TTGlyph>
    <TTGlyph name="eight" xMin="135" yMin="-2" xMax="984" yMax="1442">
      <contour>
        <pt x="769" y="1227" on="1"/>
        <pt x="350" y="1227" on="1"/>
        <pt x="350" y="827" on="1"/>
        <pt x="769" y="827" on="1"/>
      </contour>
      <contour>
        <pt x="293" y="1442" on="1"/>
        <pt x="826" y="1442" on="1"/>
        <pt x="826" y="1237" on="1"/>
        <pt x="984" y="1237" on="1"/>
        <pt x="984" y="817" on="1"/>
        <pt x="826" y="817" on="1"/>
        <pt x="826" y="623" on="1"/>
        <pt x="984" y="623" on="1"/>
        <pt x="984" y="203" on="1"/>
        <pt x="826" y="203" on="1"/>
        <pt x="826" y="-2" on="1"/>
        <pt x="293" y="-2" on="1"/>
        <pt x="293" y="203" on="1"/>
        <pt x="135" y="203" on="1"/>
        <pt x="135" y="623" on="1"/>
        <pt x="293" y="623" on="1"/>
        <pt x="293" y="817" on="1"/>
        <pt x="135" y="817" on="1"/>
        <pt x="135" y="1237" on="1"/>
        <pt x="293" y="1237" on="1"/>
      </contour>
      <contour>
        <pt x="769" y="612" on="1"/>
        <pt x="350" y="612" on="1"/>
        <pt x="350" y="213" on="1"/>
        <pt x="769" y="213" on="1"/>
      </contour>
    </TTGlyph>
    <TTGlyph name="equal" xMin="135" yMin="408" xMax="984" yMax="1032">
      <contour>
        <pt x="135" y="817" on="1"/>
        <pt x="135" y="1032" on="1"/>
        <pt x="984" y="1032" on="1"/>
        <pt x="984" y="817" on="1"/>
      </contour>
      <contour>
        <pt x="135" y="408" on="1"/>
        <pt x="135" y="623" on="1"/>
        <pt x="984" y="623" on="1"/>
        <pt x="984" y="408" on="1"/>
      </contour>
    </TTGlyph>
    <TTGlyph name="exclam" xMin="452" yMin="-2" xMax="667" yMax="1442">
      <contour>
        <pt x="452" y="-2" on="1"/>
        <pt x="452" y="213" on="1"/>
        <pt x="667" y="213" on="1"/>
        <pt x="667" y="-2" on="1"/>
      </contour>
      <contour>
        <pt x="667" y="1442" on="1"/>
        <pt x="667" y="408" on="1"/>
        <pt x="452" y="408" on="1"/>
        <pt x="452" y="1442" on="1"/>
      </contour>
    </TTGlyph>
    <TTGlyph name="f" xMin="135" yMin="-2" xMax="826" yMax="1442">
      <contour>
        <pt x="135" y="612" on="1"/>
        <pt x="135" y="827" on="1"/>
        <pt x="293" y="827" on="1"/>
        <pt x="293" y="1237" on="1"/>
        <pt x="452" y="1237" on="1"/>
        <pt x="452" y="1442" on="1"/>
        <pt x="667" y="1442" on="1"/>
        <pt x="667" y="1237" on="1"/>
        <pt x="826" y="1237" on="1"/>
        <pt x="826" y="1022" on="1"/>
        <pt x="611" y="1022" on="1"/>
        <pt x="611" y="1227" on="1"/>
        <pt x="508" y="1227" on="1"/>
        <pt x="508" y="827" on="1"/>
        <pt x="667" y="827" on="1"/>
        <pt x="667" y="612" on="1"/>
        <pt x="508" y="612" on="1"/>
        <pt x="508" y="-2" on="1"/>
        <pt x="293" y="-2" on="1"/>
        <pt x="293" y="612" on="1"/>
      </contour>
    </TTGlyph>
    <TTGlyph name="five" xMin="135" yMin="-2" xMax="984" yMax="1442">
      <contour>
        <pt x="135" y="203" on="1"/>
        <pt x="135" y="418" on="1"/>
        <pt x="350" y="418" on="1"/>
        <pt x="350" y="213" on="1"/>
        <pt x="769" y="213" on="1"/>
        <pt x="769" y="817" on="1"/>
        <pt x="135" y="817" on="1"/>
        <pt x="135" y="1442" on="1"/>
        <pt x="984" y="1442" on="1"/>
        <pt x="984" y="1227" on="1"/>
        <pt x="350" y="1227" on="1"/>
        <pt x="350" y="1032" on="1"/>
        <pt x="826" y="1032" on="1"/>
        <pt x="826" y="827" on="1"/>
        <pt x="984" y="827" on="1"/>
        <pt x="984" y="203" on="1"/>
        <pt x="826" y="203" on="1"/>
        <pt x="826" y="-2" on="1"/>
        <pt x="293" y="-2" on="1"/>
        <pt x="293" y="203" on="1"/>
      </contour>
    </TTGlyph>
    <TTGlyph name="four" xMin="135" yMin="-2" xMax="984" yMax="1442">
      <contour>
        <pt x="826" y="1442" on="1"/>
        <pt x="826" y="623" on="1"/>
        <pt x="984" y="623" on="1"/>
        <pt x="984" y="408" on="1"/>
        <pt x="826" y="408" on="1"/>
        <pt x="826" y="-2" on="1"/>
        <pt x="611" y="-2" on="1"/>
        <pt x="611" y="408" on="1"/>
        <pt x="135" y="408" on="1"/>
        <pt x="135" y="827" on="1"/>
        <pt x="293" y="827" on="1"/>
        <pt x="293" y="1032" on="1"/>
        <pt x="452" y="1032" on="1"/>
        <pt x="452" y="1237" on="1"/>
        <pt x="611" y="1237" on="1"/>
        <pt x="611" y="1442" on="1"/>
      </contour>
      <contour>
        <pt x="508" y="1022" on="1"/>
        <pt x="508" y="817" on="1"/>
        <pt x="350" y="817" on="1"/>
        <pt x="350" y="623" on="1"/>
        <pt x="611" y="623" on="1"/>
        <pt x="611" y="1022" on="1"/>
      </contour>
    </TTGlyph>
    <TTGlyph name="g" xMin="135" yMin="-412" xMax="984" yMax="1032">
      <contour>
        <pt x="293" y="-412" on="1"/>
        <pt x="293" y="-197" on="1"/>
        <pt x="769" y="-197" on="1"/>
        <pt x="769" y="203" on="1"/>
        <pt x="667" y="203" on="1"/>
        <pt x="667" y="-2" on="1"/>
        <pt x="293" y="-2" on="1"/>
        <pt x="293" y="203" on="1"/>
        <pt x="135" y="203" on="1"/>
        <pt x="135" y="827" on="1"/>
        <pt x="293" y="827" on="1"/>
        <pt x="293" y="1032" on="1"/>
        <pt x="667" y="1032" on="1"/>
        <pt x="667" y="827" on="1"/>
        <pt x="769" y="827" on="1"/>
        <pt x="769" y="1032" on="1"/>
        <pt x="984" y="1032" on="1"/>
        <pt x="984" y="-207" on="1"/>
        <pt x="826" y="-207" on="1"/>
        <pt x="826" y="-412" on="1"/>
      </contour>
      <contour>
        <pt x="611" y="817" on="1"/>
        <pt x="350" y="817" on="1"/>
        <pt x="350" y="213" on="1"/>
        <pt x="611" y="213" on="1"/>
        <pt x="611" y="418" on="1"/>
        <pt x="769" y="418" on="1"/>
        <pt x="769" y="612" on="1"/>
        <pt x="611" y="612" on="1"/>
      </contour>
    </TTGlyph>
    <TTGlyph name="grave" xMin="293" yMin="817" xMax="826" yMax="1442">
      <contour>
        <pt x="293" y="1227" on="1"/>
        <pt x="293" y="1442" on="1"/>
        <pt x="508" y="1442" on="1"/>
        <pt x="508" y="1237" on="1"/>
        <pt x="667" y="1237" on="1"/>
        <pt x="667" y="1032" on="1"/>
        <pt x="826" y="1032" on="1"/>
        <pt x="826" y="817" on="1"/>
        <pt x="611" y="817" on="1"/>
        <pt x="611" y="1022" on="1"/>
        <pt x="452" y="1022" on="1"/>
        <pt x="452" y="1227" on="1"/>
      </contour>
    </TTGlyph>
    <TTGlyph name="greater" xMin="135" yMin="-2" xMax="826" yMax="1442">
      <contour>
        <pt x="135" y="1227" on="1"/>
        <pt x="135" y="1442" on="1"/>
        <pt x="350" y="1442" on="1"/>
        <pt x="350" y="1237" on="1"/>
        <pt x="508" y="1237" on="1"/>
        <pt x="508" y="1032" on="1"/>
        <pt x="667" y="1032" on="1"/>
        <pt x="667" y="827" on="1"/>
        <pt x="826" y="827" on="1"/>
        <pt x="826" y="612" on="1"/>
        <pt x="667" y="612" on="1"/>
        <pt x="667" y="408" on="1"/>
        <pt x="508" y="408" on="1"/>
        <pt x="508" y="203" on="1"/>
        <pt x="350" y="203" on="1"/>
        <pt x="350" y="-2" on="1"/>
        <pt x="135" y="-2" on="1"/>
        <pt x="135" y="213" on="1"/>
        <pt x="293" y="213" on="1"/>
        <pt x="293" y="418" on="1"/>
        <pt x="452" y="418" on="1"/>
        <pt x="452" y="623" on="1"/>
        <pt x="611" y="623" on="1"/>
        <pt x="611" y="817" on="1"/>
        <pt x="452" y="817" on="1"/>
        <pt x="452" y="1022" on="1"/>
        <pt x="293" y="1022" on="1"/>
        <pt x="293" y="1227" on="1"/>
      </contour>
    </TTGlyph>
    <TTGlyph name="h" xMin="135" yMin="-2" xMax="984" yMax="1442">
      <contour>
        <pt x="350" y="1442" on="1"/>
        <pt x="350" y="827" on="1"/>
        <pt x="452" y="827" on="1"/>
        <pt x="452" y="1032" on="1"/>
        <pt x="826" y="1032" on="1"/>
        <pt x="826" y="827" on="1"/>
        <pt x="984" y="827" on="1"/>
        <pt x="984" y="-2" on="1"/>
        <pt x="769" y="-2" on="1"/>
        <pt x="769" y="817" on="1"/>
        <pt x="508" y="817" on="1"/>
        <pt x="508" y="612" on="1"/>
        <pt x="350" y="612" on="1"/>
        <pt x="350" y="-2" on="1"/>
        <pt x="135" y="-2" on="1"/>
        <pt x="135" y="1442" on="1"/>
      </contour>
    </TTGlyph>
    <TTGlyph name="hyphen" xMin="135" yMin="612" xMax="984" yMax="827">
      <contour>
        <pt x="135" y="612" on="1"/>
        <pt x="135" y="827" on="1"/>
        <pt x="984" y="827" on="1"/>
        <pt x="984" y="612" on="1"/>
      </contour>
    </TTGlyph>
    <TTGlyph name="i" xMin="293" yMin="-2" xMax="826" yMax="1442">
      <contour>
        <pt x="452" y="1227" on="1"/>
        <pt x="452" y="1442" on="1"/>
        <pt x="667" y="1442" on="1"/>
        <pt x="667" y="1227" on="1"/>
      </contour>
      <contour>
        <pt x="293" y="817" on="1"/>
        <pt x="293" y="1032" on="1"/>
        <pt x="667" y="1032" on="1"/>
        <pt x="667" y="213" on="1"/>
        <pt x="826" y="213" on="1"/>
        <pt x="826" y="-2" on="1"/>
        <pt x="293" y="-2" on="1"/>
        <pt x="293" y="213" on="1"/>
        <pt x="452" y="213" on="1"/>
        <pt x="452" y="817" on="1"/>
      </contour>
    </TTGlyph>
    <TTGlyph name="j" xMin="293" yMin="-412" xMax="984" yMax="1442">
      <contour>
        <pt x="769" y="1227" on="1"/>
        <pt x="769" y="1442" on="1"/>
        <pt x="984" y="1442" on="1"/>
        <pt x="984" y="1227" on="1"/>
      </contour>
      <contour>
        <pt x="293" y="-207" on="1"/>
        <pt x="293" y="8" on="1"/>
        <pt x="508" y="8" on="1"/>
        <pt x="508" y="-197" on="1"/>
        <pt x="769" y="-197" on="1"/>
        <pt x="769" y="1032" on="1"/>
        <pt x="984" y="1032" on="1"/>
        <pt x="984" y="-207" on="1"/>
        <pt x="826" y="-207" on="1"/>
        <pt x="826" y="-412" on="1"/>
        <pt x="452" y="-412" on="1"/>
        <pt x="452" y="-207" on="1"/>
      </contour>
    </TTGlyph>
    <TTGlyph name="k" xMin="135" yMin="-2" xMax="826" yMax="1442">
      <contour>
        <pt x="350" y="1442" on="1"/>
        <pt x="350" y="623" on="1"/>
        <pt x="452" y="623" on="1"/>
        <pt x="452" y="827" on="1"/>
        <pt x="611" y="827" on="1"/>
        <pt x="611" y="1032" on="1"/>
        <pt x="826" y="1032" on="1"/>
        <pt x="826" y="817" on="1"/>
        <pt x="667" y="817" on="1"/>
        <pt x="667" y="612" on="1"/>
        <pt x="508" y="612" on="1"/>
        <pt x="508" y="418" on="1"/>
        <pt x="667" y="418" on="1"/>
        <pt x="667" y="213" on="1"/>
        <pt x="826" y="213" on="1"/>
        <pt x="826" y="-2" on="1"/>
        <pt x="611" y="-2" on="1"/>
        <pt x="611" y="203" on="1"/>
        <pt x="452" y="203" on="1"/>
        <pt x="452" y="408" on="1"/>
        <pt x="350" y="408" on="1"/>
        <pt x="350" y="-2" on="1"/>
        <pt x="135" y="-2" on="1"/>
        <pt x="135" y="1442" on="1"/>
      </contour>
    </TTGlyph>
    <TTGlyph name="l" xMin="293" yMin="-2" xMax="826" yMax="1442">
      <contour>
        <pt x="293" y="1227" on="1"/>
        <pt x="293" y="1442" on="1"/>
        <pt x="667" y="1442" on="1"/>
        <pt x="667" y="213" on="1"/>
        <pt x="826" y="213" on="1"/>
        <pt x="826" y="-2" on="1"/>
        <pt x="293" y="-2" on="1"/>
        <pt x="293" y="213" on="1"/>
        <pt x="452" y="213" on="1"/>
        <pt x="452" y="1227" on="1"/>
      </contour>
    </TTGlyph>
    <TTGlyph name="less" xMin="293" yMin="-2" xMax="984" yMax="1442">
      <contour>
        <pt x="293" y="612" on="1"/>
        <pt x="293" y="827" on="1"/>
        <pt x="452" y="827" on="1"/>
        <pt x="452" y="1032" on="1"/>
        <pt x="611" y="1032" on="1"/>
        <pt x="611" y="1237" on="1"/>
        <pt x="769" y="1237" on="1"/>
        <pt x="769" y="1442" on="1"/>
        <pt x="984" y="1442" on="1"/>
        <pt x="984" y="1227" on="1"/>
        <pt x="826" y="1227" on="1"/>
        <pt x="826" y="1022" on="1"/>
        <pt x="667" y="1022" on="1"/>
        <pt x="667" y="817" on="1"/>
        <pt x="508" y="817" on="1"/>
        <pt x="508" y="623" on="1"/>
        <pt x="667" y="623" on="1"/>
        <pt x="667" y="418" on="1"/>
        <pt x="826" y="418" on="1"/>
        <pt x="826" y="213" on="1"/>
        <pt x="984" y="213" on="1"/>
        <pt x="984" y="-2" on="1"/>
        <pt x="769" y="-2" on="1"/>
        <pt x="769" y="203" on="1"/>
        <pt x="611" y="203" on="1"/>
        <pt x="611" y="408" on="1"/>
        <pt x="452" y="408" on="1"/>
        <pt x="452" y="612" on="1"/>
      </contour>
    </TTGlyph>
    <TTGlyph name="m" xMin="135" yMin="-2" xMax="984" yMax="1032">
      <contour>
        <pt x="135" y="1032" on="1"/>
        <pt x="508" y="1032" on="1"/>
        <pt x="508" y="827" on="1"/>
        <pt x="611" y="827" on="1"/>
        <pt x="611" y="1032" on="1"/>
        <pt x="826" y="1032" on="1"/>
        <pt x="826" y="827" on="1"/>
        <pt x="984" y="827" on="1"/>
        <pt x="984" y="-2" on="1"/>
        <pt x="769" y="-2" on="1"/>
        <pt x="769" y="817" on="1"/>
        <pt x="667" y="817" on="1"/>
        <pt x="667" y="-2" on="1"/>
        <pt x="452" y="-2" on="1"/>
        <pt x="452" y="817" on="1"/>
        <pt x="350" y="817" on="1"/>
        <pt x="350" y="-2" on="1"/>
        <pt x="135" y="-2" on="1"/>
      </contour>
    </TTGlyph>
    <TTGlyph name="n" xMin="135" yMin="-2" xMax="984" yMax="1032">
      <contour>
        <pt x="769" y="817" on="1"/>
        <pt x="508" y="817" on="1"/>
        <pt x="508" y="612" on="1"/>
        <pt x="350" y="612" on="1"/>
        <pt x="350" y="-2" on="1"/>
        <pt x="135" y="-2" on="1"/>
        <pt x="135" y="1032" on="1"/>
        <pt x="350" y="1032" on="1"/>
        <pt x="350" y="827" on="1"/>
        <pt x="452" y="827" on="1"/>
        <pt x="452" y="1032" on="1"/>
        <pt x="826" y="1032" on="1"/>
        <pt x="826" y="827" on="1"/>
        <pt x="984" y="827" on="1"/>
        <pt x="984" y="-2" on="1"/>
        <pt x="769" y="-2" on="1"/>
      </contour>
    </TTGlyph>
    <TTGlyph name="nine" xMin="135" yMin="-2" xMax="984" yMax="1442">
      <contour>
        <pt x="293" y="-2" on="1"/>
        <pt x="293" y="213" on="1"/>
        <pt x="611" y="213" on="1"/>
        <pt x="611" y="418" on="1"/>
        <pt x="769" y="418" on="1"/>
        <pt x="769" y="612" on="1"/>
        <pt x="293" y="612" on="1"/>
        <pt x="293" y="817" on="1"/>
        <pt x="135" y="817" on="1"/>
        <pt x="135" y="1237" on="1"/>
        <pt x="293" y="1237" on="1"/>
        <pt x="293" y="1442" on="1"/>
        <pt x="826" y="1442" on="1"/>
        <pt x="826" y="1237" on="1"/>
        <pt x="984" y="1237" on="1"/>
        <pt x="984" y="408" on="1"/>
        <pt x="826" y="408" on="1"/>
        <pt x="826" y="203" on="1"/>
        <pt x="667" y="203" on="1"/>
        <pt x="667" y="-2" on="1"/>
      </contour>
      <contour>
        <pt x="769" y="1227" on="1"/>
        <pt x="350" y="1227" on="1"/>
        <pt x="350" y="827" on="1"/>
        <pt x="769" y="827" on="1"/>
      </contour>
    </TTGlyph>
    <TTGlyph name="numbersign" xMin="135" yMin="-2" xMax="984" yMax="1442">
      <contour>
        <pt x="135" y="817" on="1"/>
        <pt x="135" y="1032" on="1"/>
        <pt x="293" y="1032" on="1"/>
        <pt x="293" y="1442" on="1"/>
        <pt x="508" y="1442" on="1"/>
        <pt x="508" y="1032" on="1"/>
        <pt x="611" y="1032" on="1"/>
        <pt x="611" y="1442" on="1"/>
        <pt x="826" y="1442" on="1"/>
        <pt x="826" y="1032" on="1"/>
        <pt x="984" y="1032" on="1"/>
        <pt x="984" y="817" on="1"/>
        <pt x="826" y="817" on="1"/>
        <pt x="826" y="623" on="1"/>
        <pt x="984" y="623" on="1"/>
        <pt x="984" y="408" on="1"/>
        <pt x="826" y="408" on="1"/>
        <pt x="826" y="-2" on="1"/>
        <pt x="611" y="-2" on="1"/>
        <pt x="611" y="408" on="1"/>
        <pt x="508" y="408" on="1"/>
        <pt x="508" y="-2" on="1"/>
        <pt x="293" y="-2" on="1"/>
        <pt x="293" y="408" on="1"/>
        <pt x="135" y="408" on="1"/>
        <pt x="135" y="623" on="1"/>
        <pt x="293" y="623" on="1"/>
        <pt x="293" y="817" on="1"/>
      </contour>
      <contour>
        <pt x="508" y="817" on="1"/>
        <pt x="508" y="623" on="1"/>
        <pt x="611" y="623" on="1"/>
        <pt x="611" y="817" on="1"/>
      </contour>
    </TTGlyph>
    <TTGlyph name="o" xMin="135" yMin="-2" xMax="984" yMax="1032">
      <contour>
        <pt x="769" y="817" on="1"/>
        <pt x="350" y="817" on="1"/>
        <pt x="350" y="213" on="1"/>
        <pt x="769" y="213" on="1"/>
      </contour>
      <contour>
        <pt x="293" y="1032" on="1"/>
        <pt x="826" y="1032" on="1"/>
        <pt x="826" y="827" on="1"/>
        <pt x="984" y="827" on="1"/>
        <pt x="984" y="203" on="1"/>
        <pt x="826" y="203" on="1"/>
        <pt x="826" y="-2" on="1"/>
        <pt x="293" y="-2" on="1"/>
        <pt x="293" y="203" on="1"/>
        <pt x="135" y="203" on="1"/>
        <pt x="135" y="827" on="1"/>
        <pt x="293" y="827" on="1"/>
      </contour>
    </TTGlyph>
    <TTGlyph name="one" xMin="293" yMin="-2" xMax="826" yMax="1442">
      <contour>
        <pt x="293" y="1022" on="1"/>
        <pt x="293" y="1237" on="1"/>
        <pt x="452" y="1237" on="1"/>
        <pt x="452" y="1442" on="1"/>
        <pt x="667" y="1442" on="1"/>
        <pt x="667" y="213" on="1"/>
        <pt x="826" y="213" on="1"/>
        <pt x="826" y="-2" on="1"/>
        <pt x="293" y="-2" on="1"/>
        <pt x="293" y="213" on="1"/>
        <pt x="452" y="213" on="1"/>
        <pt x="452" y="1022" on="1"/>
      </contour>
    </TTGlyph>
    <TTGlyph name="p" xMin="135" yMin="-412" xMax="984" yMax="1032">
      <contour>
        <pt x="769" y="817" on="1"/>
        <pt x="508" y="817" on="1"/>
        <pt x="508" y="612" on="1"/>
        <pt x="350" y="612" on="1"/>
        <pt x="350" y="418" on="1"/>
        <pt x="508" y="418" on="1"/>
        <pt x="508" y="213" on="1"/>
        <pt x="769" y="213" on="1"/>
      </contour>
      <contour>
        <pt x="452" y="1032" on="1"/>
        <pt x="826" y="1032" on="1"/>
        <pt x="826" y="827" on="1"/>
        <pt x="984" y="827" on="1"/>
        <pt x="984" y="203" on="1"/>
        <pt x="826" y="203" on="1"/>
        <pt x="826" y="-2" on="1"/>
        <pt x="452" y="-2" on="1"/>
        <pt x="452" y="203" on="1"/>
        <pt x="350" y="203" on="1"/>
        <pt x="350" y="-412" on="1"/>
        <pt x="135" y="-412" on="1"/>
        <pt x="135" y="1032" on="1"/>
        <pt x="350" y="1032" on="1"/>
        <pt x="350" y="827" on="1"/>
        <pt x="452" y="827" on="1"/>
      </contour>
    </TTGlyph>
    <TTGlyph name="parenleft" xMin="293" yMin="-2" xMax="826" yMax="1442">
      <contour>
        <pt x="667" y="1227" on="1"/>
        <pt x="667" y="1022" on="1"/>
        <pt x="508" y="1022" on="1"/>
        <pt x="508" y="418" on="1"/>
        <pt x="667" y="418" on="1"/>
        <pt x="667" y="213" on="1"/>
        <pt x="826" y="213" on="1"/>
        <pt x="826" y="-2" on="1"/>
        <pt x="611" y="-2" on="1"/>
        <pt x="611" y="203" on="1"/>
        <pt x="452" y="203" on="1"/>
        <pt x="452" y="408" on="1"/>
        <pt x="293" y="408" on="1"/>
        <pt x="293" y="1032" on="1"/>
        <pt x="452" y="1032" on="1"/>
        <pt x="452" y="1237" on="1"/>
        <pt x="611" y="1237" on="1"/>
        <pt x="611" y="1442" on="1"/>
        <pt x="826" y="1442" on="1"/>
        <pt x="826" y="1227" on="1"/>
      </contour>
    </TTGlyph>
    <TTGlyph name="parenright" xMin="293" yMin="-2" xMax="826" yMax="1442">
      <contour>
        <pt x="293" y="1227" on="1"/>
        <pt x="293" y="1442" on="1"/>
        <pt x="508" y="1442" on="1"/>
        <pt x="508" y="1237" on="1"/>
        <pt x="667" y="1237" on="1"/>
        <pt x="667" y="1032" on="1"/>
        <pt x="826" y="1032" on="1"/>
        <pt x="826" y="408" on="1"/>
        <pt x="667" y="408" on="1"/>
        <pt x="667" y="203" on="1"/>
        <pt x="508" y="203" on="1"/>
        <pt x="508" y="-2" on="1"/>
        <pt x="293" y="-2" on="1"/>
        <pt x="293" y="213" on="1"/>
        <pt x="452" y="213" on="1"/>
        <pt x="452" y="418" on="1"/>
        <pt x="611" y="418" on="1"/>
        <pt x="611" y="1022" on="1"/>
        <pt x="452" y="1022" on="1"/>
        <pt x="452" y="1227" on="1"/>
      </contour>
    </TTGlyph>
    <TTGlyph name="percent" xMin="135" yMin="-2" xMax="984" yMax="1442">
      <contour>
        <pt x="135" y="1442" on="1"/>
        <pt x="508" y="1442" on="1"/>
        <pt x="508" y="1022" on="1"/>
        <pt x="135" y="1022" on="1"/>
      </contour>
      <contour>
        <pt x="984" y="1442" on="1"/>
        <pt x="984" y="1022" on="1"/>
        <pt x="826" y="1022" on="1"/>
        <pt x="826" y="817" on="1"/>
        <pt x="667" y="817" on="1"/>
        <pt x="667" y="612" on="1"/>
        <pt x="508" y="612" on="1"/>
        <pt x="508" y="408" on="1"/>
        <pt x="350" y="408" on="1"/>
        <pt x="350" y="-2" on="1"/>
        <pt x="135" y="-2" on="1"/>
        <pt x="135" y="418" on="1"/>
        <pt x="293" y="418" on="1"/>
        <pt x="293" y="623" on="1"/>
        <pt x="452" y="623" on="1"/>
        <pt x="452" y="827" on="1"/>
        <pt x="611" y="827" on="1"/>
        <pt x="611" y="1032" on="1"/>
        <pt x="769" y="1032" on="1"/>
        <pt x="769" y="1442" on="1"/>
      </contour>
      <contour>
        <pt x="611" y="418" on="1"/>
        <pt x="984" y="418" on="1"/>
        <pt x="984" y="-2" on="1"/>
        <pt x="611" y="-2" on="1"/>
      </contour>
    </TTGlyph>
    <TTGlyph name="period" xMin="452" yMin="-2" xMax="667" yMax="213">
      <contour>
        <pt x="452" y="-2" on="1"/>
        <pt x="452" y="213" on="1"/>
        <pt x="667" y="213" on="1"/>
        <pt x="667" y="-2" on="1"/>
      </contour>
    </TTGlyph>
    <TTGlyph name="plus" xMin="135" yMin="203" xMax="984" yMax="1237">
      <contour>
        <pt x="135" y="612" on="1"/>
        <pt x="135" y="827" on="1"/>
        <pt x="452" y="827" on="1"/>
        <pt x="452" y="1237" on="1"/>
        <pt x="667" y="1237" on="1"/>
        <pt x="667" y="827" on="1"/>
        <pt x="984" y="827" on="1"/>
        <pt x="984" y="612" on="1"/>
        <pt x="667" y="612" on="1"/>
        <pt x="667" y="203" on="1"/>
        <pt x="452" y="203" on="1"/>
        <pt x="452" y="612" on="1"/>
      </contour>
    </TTGlyph>
    <TTGlyph name="q" xMin="135" yMin="-412" xMax="984" yMax="1032">
      <contour>
        <pt x="611" y="817" on="1"/>
        <pt x="350" y="817" on="1"/>
        <pt x="350" y="213" on="1"/>
        <pt x="611" y="213" on="1"/>
        <pt x="611" y="418" on="1"/>
        <pt x="769" y="418" on="1"/>
        <pt x="769" y="612" on="1"/>
        <pt x="611" y="612" on="1"/>
      </contour>
      <contour>
        <pt x="293" y="1032" on="1"/>
        <pt x="667" y="1032" on="1"/>
        <pt x="667" y="827" on="1"/>
        <pt x="769" y="827" on="1"/>
        <pt x="769" y="1032" on="1"/>
        <pt x="984" y="1032" on="1"/>
        <pt x="984" y="-412" on="1"/>
        <pt x="769" y="-412" on="1"/>
        <pt x="769" y="203" on="1"/>
        <pt x="667" y="203" on="1"/>
        <pt x="667" y="-2" on="1"/>
        <pt x="293" y="-2" on="1"/>
        <pt x="293" y="203" on="1"/>
        <pt x="135" y="203" on="1"/>
        <pt x="135" y="827" on="1"/>
        <pt x="293" y="827" on="1"/>
      </contour>
    </TTGlyph>
    <TTGlyph name="question" xMin="135" yMin="-2" xMax="984" yMax="1442">
      <contour>
        <pt x="135" y="1022" on="1"/>
        <pt x="135" y="1237" on="1"/>
        <pt x="293" y="1237" on="1"/>
        <pt x="293" y="1442" on="1"/>
        <pt x="826" y="1442" on="1"/>
        <pt x="826" y="1237" on="1"/>
        <pt x="984" y="1237" on="1"/>
        <pt x="984" y="817" on="1"/>
        <pt x="826" y="817" on="1"/>
        <pt x="826" y="612" on="1"/>
        <pt x="667" y="612" on="1"/>
        <pt x="667" y="408" on="1"/>
        <pt x="452" y="408" on="1"/>
        <pt x="452" y="623" on="1"/>
        <pt x="611" y="623" on="1"/>
        <pt x="611" y="827" on="1"/>
        <pt x="769" y="827" on="1"/>
        <pt x="769" y="1227" on="1"/>
        <pt x="350" y="1227" on="1"/>
        <pt x="350" y="1022" on="1"/>
      </contour>
      <contour>
        <pt x="452" y="-2" on="1"/>
        <pt x="452" y="213" on="1"/>
        <pt x="667" y="213" on="1"/>
        <pt x="667" y="-2" on="1"/>
      </contour>
    </TTGlyph>
    <TTGlyph name="quotedbl" xMin="293" yMin="817" xMax="826" yMax="1442">
      <contour>
        <pt x="508" y="1442" on="1"/>
        <pt x="508" y="817" on="1"/>
        <pt x="293" y="817" on="1"/>
        <pt x="293" y="1442" on="1"/>
      </contour>
      <contour>
        <pt x="826" y="1442" on="1"/>
        <pt x="826" y="817" on="1"/>
        <pt x="611" y="817" on="1"/>
        <pt x="611" y="1442" on="1"/>
      </contour>
    </TTGlyph>
    <TTGlyph name="quotesingle" xMin="293" yMin="817" xMax="826" yMax="1442">
      <contour>
        <pt x="293" y="817" on="1"/>
        <pt x="293" y="1032" on="1"/>
        <pt x="452" y="1032" on="1"/>
        <pt x="452" y="1237" on="1"/>
        <pt x="611" y="1237" on="1"/>
        <pt x="611" y="1442" on="1"/>
        <pt x="826" y="1442" on="1"/>
        <pt x="826" y="1227" on="1"/>
        <pt x="667" y="1227" on="1"/>
        <pt x="667" y="1022" on="1"/>
        <pt x="508" y="1022" on="1"/>
        <pt x="508" y="817" on="1"/>
      </contour>
    </TTGlyph>
    <TTGlyph name="r" xMin="135" yMin="-2" xMax="984" yMax="1032">
      <contour>
        <pt x="769" y="817" on="1"/>
        <pt x="508" y="817" on="1"/>
        <pt x="508" y="612" on="1"/>
        <pt x="350" y="612" on="1"/>
        <pt x="350" y="-2" on="1"/>
        <pt x="135" y="-2" on="1"/>
        <pt x="135" y="1032" on="1"/>
        <pt x="350" y="1032" on="1"/>
        <pt x="350" y="827" on="1"/>
        <pt x="452" y="827" on="1"/>
        <pt x="452" y="1032" on="1"/>
        <pt x="826" y="1032" on="1"/>
        <pt x="826" y="827" on="1"/>
        <pt x="984" y="827" on="1"/>
        <pt x="984" y="612" on="1"/>
        <pt x="769" y="612" on="1"/>
      </contour>
    </TTGlyph>
    <TTGlyph name="s" xMin="135" yMin="-2" xMax="984" yMax="1032">
      <contour>
        <pt x="135" y="612" on="1"/>
        <pt x="135" y="827" on="1"/>
        <pt x="293" y="827" on="1"/>
        <pt x="293" y="1032" on="1"/>
        <pt x="984" y="1032" on="1"/>
        <pt x="984" y="817" on="1"/>
        <pt x="350" y="817" on="1"/>
        <pt x="350" y="623" on="1"/>
        <pt x="826" y="623" on="1"/>
        <pt x="826" y="418" on="1"/>
        <pt x="984" y="418" on="1"/>
        <pt x="984" y="203" on="1"/>
        <pt x="826" y="203" on="1"/>
        <pt x="826" y="-2" on="1"/>
        <pt x="135" y="-2" on="1"/>
        <pt x="135" y="213" on="1"/>
        <pt x="769" y="213" on="1"/>
        <pt x="769" y="408" on="1"/>
        <pt x="293" y="408" on="1"/>
        <pt x="293" y="612" on="1"/>
      </contour>
    </TTGlyph>
    <TTGlyph name="semicolon" xMin="293" yMin="-207" xMax="667" yMax="1032">
      <contour>
        <pt x="452" y="817" on="1"/>
        <pt x="452" y="1032" on="1"/>
        <pt x="667" y="1032" on="1"/>
        <pt x="667" y="817" on="1"/>
      </contour>
      <contour>
        <pt x="293" y="-207" on="1"/>
        <pt x="293" y="8" on="1"/>
        <pt x="452" y="8" on="1"/>
        <pt x="452" y="418" on="1"/>
        <pt x="667" y="418" on="1"/>
        <pt x="667" y="-2" on="1"/>
        <pt x="508" y="-2" on="1"/>
        <pt x="508" y="-207" on="1"/>
      </contour>
    </TTGlyph>
    <TTGlyph name="seven" xMin="135" yMin="-2" xMax="984" yMax="1442">
      <contour>
        <pt x="135" y="1227" on="1"/>
        <pt x="135" y="1442" on="1"/>
        <pt x="984" y="1442" on="1"/>
        <pt x="984" y="1022" on="1"/>
        <pt x="826" y="1022" on="1"/>
        <pt x="826" y="817" on="1"/>
        <pt x="667" y="817" on="1"/>
        <pt x="667" y="612" on="1"/>
        <pt x="508" y="612" on="1"/>
        <pt x="508" y="-2" on="1"/>
        <pt x="293" y="-2" on="1"/>
        <pt x="293" y="623" on="1"/>
        <pt x="452" y="623" on="1"/>
        <pt x="452" y="827" on="1"/>
        <pt x="611" y="827" on="1"/>
        <pt x="611" y="1032" on="1"/>
        <pt x="769" y="1032" on="1"/>
        <pt x="769" y="1227" on="1"/>
      </contour>
    </TTGlyph>
    <TTGlyph name="six" xMin="135" yMin="-2" xMax="984" yMax="1442">
      <contour>
        <pt x="826" y="1227" on="1"/>
        <pt x="508" y="1227" on="1"/>
        <pt x="508" y="1022" on="1"/>
        <pt x="350" y="1022" on="1"/>
        <pt x="350" y="827" on="1"/>
        <pt x="826" y="827" on="1"/>
        <pt x="826" y="623" on="1"/>
        <pt x="984" y="623" on="1"/>
        <pt x="984" y="203" on="1"/>
        <pt x="826" y="203" on="1"/>
        <pt x="826" y="-2" on="1"/>
        <pt x="293" y="-2" on="1"/>
        <pt x="293" y="203" on="1"/>
        <pt x="135" y="203" on="1"/>
        <pt x="135" y="1032" on="1"/>
        <pt x="293" y="1032" on="1"/>
        <pt x="293" y="1237" on="1"/>
        <pt x="452" y="1237" on="1"/>
        <pt x="452" y="1442" on="1"/>
        <pt x="826" y="1442" on="1"/>
      </contour>
      <contour>
        <pt x="769" y="612" on="1"/>
        <pt x="350" y="612" on="1"/>
        <pt x="350" y="213" on="1"/>
        <pt x="769" y="213" on="1"/>
      </contour>
    </TTGlyph>
    <TTGlyph name="slash" xMin="135" yMin="-2" xMax="984" yMax="1442">
      <contour>
        <pt x="984" y="1442" on="1"/>
        <pt x="984" y="1022" on="1"/>
        <pt x="826" y="1022" on="1"/>
        <pt x="826" y="817" on="1"/>
        <pt x="667" y="817" on="1"/>
        <pt x="667" y="612" on="1"/>
        <pt x="508" y="612" on="1"/>
        <pt x="508" y="408" on="1"/>
        <pt x="350" y="408" on="1"/>
        <pt x="350" y="-2" on="1"/>
        <pt x="135" y="-2" on="1"/>
        <pt x="135" y="418" on="1"/>
        <pt x="293" y="418" on="1"/>
        <pt x="293" y="623" on="1"/>
        <pt x="452" y="623" on="1"/>
        <pt x="452" y="827" on="1"/>
        <pt x="611" y="827" on="1"/>
        <pt x="611" y="1032" on="1"/>
        <pt x="769" y="1032" on="1"/>
        <pt x="769" y="1442" on="1"/>
      </contour>
    </TTGlyph>
    <TTGlyph name="t" xMin="135" yMin="-2" xMax="826" yMax="1442">
      <contour>
        <pt x="135" y="817" on="1"/>
        <pt x="135" y="1032" on="1"/>
        <pt x="293" y="1032" on="1"/>
        <pt x="293" y="1442" on="1"/>
        <pt x="508" y="1442" on="1"/>
        <pt x="508" y="1032" on="1"/>
        <pt x="667" y="1032" on="1"/>
        <pt x="667" y="817" on="1"/>
        <pt x="508" y="817" on="1"/>
        <pt x="508" y="213" on="1"/>
        <pt x="611" y="213" on="1"/>
        <pt x="611" y="418" on="1"/>
        <pt x="826" y="418" on="1"/>
        <pt x="826" y="203" on="1"/>
        <pt x="667" y="203" on="1"/>
        <pt x="667" y="-2" on="1"/>
        <pt x="452" y="-2" on="1"/>
        <pt x="452" y="203" on="1"/>
        <pt x="293" y="203" on="1"/>
        <pt x="293" y="817" on="1"/>
      </contour>
    </TTGlyph>
    <TTGlyph name="three" xMin="135" yMin="-2" xMax="984" yMax="1442">
      <contour>
        <pt x="135" y="1022" on="1"/>
        <pt x="135" y="1237" on="1"/>
        <pt x="293" y="1237" on="1"/>
        <pt x="293" y="1442" on="1"/>
        <pt x="826" y="1442" on="1"/>
        <pt x="826" y="1237" on="1"/>
        <pt x="984" y="1237" on="1"/>
        <pt x="984" y="817" on="1"/>
        <pt x="826" y="817" on="1"/>
        <pt x="826" y="623" on="1"/>
        <pt x="984" y="623" on="1"/>
        <pt x="984" y="203" on="1"/>
        <pt x="826" y="203" on="1"/>
        <pt x="826" y="-2" on="1"/>
        <pt x="293" y="-2" on="1"/>
        <pt x="293" y="203" on="1"/>
        <pt x="135" y="203" on="1"/>
        <pt x="135" y="418" on="1"/>
        <pt x="350" y="418" on="1"/>
        <pt x="350" y="213" on="1"/>
        <pt x="769" y="213" on="1"/>
        <pt x="769" y="612" on="1"/>
        <pt x="452" y="612" on="1"/>
        <pt x="452" y="827" on="1"/>
        <pt x="769" y="827" on="1"/>
        <pt x="769" y="1227" on="1"/>
        <pt x="350" y="1227" on="1"/>
        <pt x="350" y="1022" on="1"/>
      </contour>
    </TTGlyph>
    <TTGlyph name="two" xMin="135" yMin="-2" xMax="984" yMax="1442">
      <contour>
        <pt x="135" y="1022" on="1"/>
        <pt x="135" y="1237" on="1"/>
        <pt x="293" y="1237" on="1"/>
        <pt x="293" y="1442" on="1"/>
        <pt x="826" y="1442" on="1"/>
        <pt x="826" y="1237" on="1"/>
        <pt x="984" y="1237" on="1"/>
        <pt x="984" y="817" on="1"/>
        <pt x="826" y="817" on="1"/>
        <pt x="826" y="612" on="1"/>
        <pt x="350" y="612" on="1"/>
        <pt x="350" y="213" on="1"/>
        <pt x="984" y="213" on="1"/>
        <pt x="984" y="-2" on="1"/>
        <pt x="135" y="-2" on="1"/>
        <pt x="135" y="623" on="1"/>
        <pt x="293" y="623" on="1"/>
        <pt x="293" y="827" on="1"/>
        <pt x="769" y="827" on="1"/>
        <pt x="769" y="1227" on="1"/>
        <pt x="350" y="1227" on="1"/>
        <pt x="350" y="1022" on="1"/>
      </contour>
    </TTGlyph>
    <TTGlyph name="u" xMin="135" yMin="-2" xMax="984" yMax="1032">
      <contour>
        <pt x="350" y="1032" on="1"/>
        <pt x="350" y="213" on="1"/>
        <pt x="611" y="213" on="1"/>
        <pt x="611" y="418" on="1"/>
        <pt x="769" y="418" on="1"/>
        <pt x="769" y="1032" on="1"/>
        <pt x="984" y="1032" on="1"/>
        <pt x="984" y="-2" on="1"/>
        <pt x="769" y="-2" on="1"/>
        <pt x="769" y="203" on="1"/>
        <pt x="667" y="203" on="1"/>
        <pt x="667" y="-2" on="1"/>
        <pt x="293" y="-2" on="1"/>
        <pt x="293" y="203" on="1"/>
        <pt x="135" y="203" on="1"/>
        <pt x="135" y="1032" on="1"/>
      </contour>
    </TTGlyph>
    <TTGlyph name="underscore" xMin="135" yMin="-2" xMax="984" yMax="213">
      <contour>
        <pt x="135" y="-2" on="1"/>
        <pt x="135" y="213" on="1"/>
        <pt x="984" y="213" on="1"/>
        <pt x="984" y="-2" on="1"/>
      </contour>
    </TTGlyph>
    <TTGlyph name="v" xMin="135" yMin="-2" xMax="984" yMax="1032">
      <contour>
        <pt x="350" y="1032" on="1"/>
        <pt x="350" y="418" on="1"/>
        <pt x="508" y="418" on="1"/>
        <pt x="508" y="213" on="1"/>
        <pt x="611" y="213" on="1"/>
        <pt x="611" y="418" on="1"/>
        <pt x="769" y="418" on="1"/>
        <pt x="769" y="1032" on="1"/>
        <pt x="984" y="1032" on="1"/>
        <pt x="984" y="408" on="1"/>
        <pt x="826" y="408" on="1"/>
        <pt x="826" y="203" on="1"/>
        <pt x="667" y="203" on="1"/>
        <pt x="667" y="-2" on="1"/>
        <pt x="452" y="-2" on="1"/>
        <pt x="452" y="203" on="1"/>
        <pt x="293" y="203" on="1"/>
        <pt x="293" y="408" on="1"/>
        <pt x="135" y="408" on="1"/>
        <pt x="135" y="1032" on="1"/>
      </contour>
    </TTGlyph>
    <TTGlyph name="w" xMin="135" yMin="-2" xMax="984" yMax="1032">
      <contour>
        <pt x="350" y="1032" on="1"/>
        <pt x="350" y="213" on="1"/>
        <pt x="452" y="213" on="1"/>
        <pt x="452" y="623" on="1"/>
        <pt x="667" y="623" on="1"/>
        <pt x="667" y="213" on="1"/>
        <pt x="769" y="213" on="1"/>
        <pt x="769" y="1032" on="1"/>
        <pt x="984" y="1032" on="1"/>
        <pt x="984" y="203" on="1"/>
        <pt x="826" y="203" on="1"/>
        <pt x="826" y="-2" on="1"/>
        <pt x="611" y="-2" on="1"/>
        <pt x="611" y="203" on="1"/>
        <pt x="508" y="203" on="1"/>
        <pt x="508" y="-2" on="1"/>
        <pt x="293" y="-2" on="1"/>
        <pt x="293" y="203" on="1"/>
        <pt x="135" y="203" on="1"/>
        <pt x="135" y="1032" on="1"/>
      </contour>
    </TTGlyph>
    <TTGlyph name="x" xMin="135" yMin="-2" xMax="984" yMax="1032">
      <contour>
        <pt x="135" y="817" on="1"/>
        <pt x="135" y="1032" on="1"/>
        <pt x="350" y="1032" on="1"/>
        <pt x="350" y="827" on="1"/>
        <pt x="508" y="827" on="1"/>
        <pt x="508" y="623" on="1"/>
        <pt x="611" y="623" on="1"/>
        <pt x="611" y="827" on="1"/>
        <pt x="769" y="827" on="1"/>
        <pt x="769" y="1032" on="1"/>
        <pt x="984" y="1032" on="1"/>
        <pt x="984" y="817" on="1"/>
        <pt x="826" y="817" on="1"/>
        <pt x="826" y="612" on="1"/>
        <pt x="667" y="612" on="1"/>
        <pt x="667" y="418" on="1"/>
        <pt x="826" y="418" on="1"/>
        <pt x="826" y="213" on="1"/>
        <pt x="984" y="213" on="1"/>
        <pt x="984" y="-2" on="1"/>
        <pt x="769" y="-2" on="1"/>
        <pt x="769" y="203" on="1"/>
        <pt x="611" y="203" on="1"/>
        <pt x="611" y="408" on="1"/>
        <pt x="508" y="408" on="1"/>
        <pt x="508" y="203" on="1"/>
        <pt x="350" y="203" on="1"/>
        <pt x="350" y="-2" on="1"/>
        <pt x="135" y="-2" on="1"/>
        <pt x="135" y="213" on="1"/>
        <pt x="293" y="213" on="1"/>
        <pt x="293" y="418" on="1"/>
        <pt x="452" y="418" on="1"/>
        <pt x="452" y="612" on="1"/>
        <pt x="293" y="612" on="1"/>
        <pt x="293" y="817" on="1"/>
      </contour>
    </TTGlyph>
    <TTGlyph name="y" xMin="135" yMin="-412" xMax="984" yMax="1032">
      <contour>
        <pt x="293" y="-412" on="1"/>
        <pt x="293" y="-197" on="1"/>
        <pt x="769" y="-197" on="1"/>
        <pt x="769" y="203" on="1"/>
        <pt x="667" y="203" on="1"/>
        <pt x="667" y="-2" on="1"/>
        <pt x="293" y="-2" on="1"/>
        <pt x="293" y="203" on="1"/>
        <pt x="135" y="203" on="1"/>
        <pt x="135" y="1032" on="1"/>
        <pt x="350" y="1032" on="1"/>
        <pt x="350" y="213" on="1"/>
        <pt x="611" y="213" on="1"/>
        <pt x="611" y="418" on="1"/>
        <pt x="769" y="418" on="1"/>
        <pt x="769" y="1032" on="1"/>
        <pt x="984" y="1032" on="1"/>
        <pt x="984" y="-207" on="1"/>
        <pt x="826" y="-207" on="1"/>
        <pt x="826" y="-412" on="1"/>
      </contour>
    </TTGlyph>
    <TTGlyph name="z" xMin="135" yMin="-2" xMax="984" yMax="1032">
      <contour>
        <pt x="135" y="817" on="1"/>
        <pt x="135" y="1032" on="1"/>
        <pt x="984" y="1032" on="1"/>
        <pt x="984" y="817" on="1"/>
        <pt x="826" y="817" on="1"/>
        <pt x="826" y="612" on="1"/>
        <pt x="667" y="612" on="1"/>
        <pt x="667" y="408" on="1"/>
        <pt x="508" y="408" on="1"/>
        <pt x="508" y="213" on="1"/>
        <pt x="984" y="213" on="1"/>
        <pt x="984" y="-2" on="1"/>
        <pt x="135" y="-2" on="1"/>
        <pt x="135" y="213" on="1"/>
        <pt x="293" y="213" on="1"/>
        <pt x="293" y="418" on="1"/>
        <pt x="452" y="418" on="1"/>
        <pt x="452" y="623" on="1"/>
        <pt x="611" y="623" on="1"/>
        <pt x="611" y="817" on="1"/>
      </contour>
    </TTGlyph>
    <TTGlyph name="zero" xMin="135" yMin="-2" xMax="984" yMax="1442">
      <contour>
        <pt x="769" y="1227" on="1"/>
        <pt x="350" y="1227" on="1"/>
        <pt x="350" y="623" on="1"/>
        <pt x="452" y="623" on="1"/>
        <pt x="452" y="827" on="1"/>
        <pt x="611" y="827" on="1"/>
        <pt x="611" y="1032" on="1"/>
        <pt x="769" y="1032" on="1"/>
      </contour>
      <contour>
        <pt x="293" y="1442" on="1"/>
        <pt x="826" y="1442" on="1"/>
        <pt x="826" y="1237" on="1"/>
        <pt x="984" y="1237" on="1"/>
        <pt x="984" y="203" on="1"/>
        <pt x="826" y="203" on="1"/>
        <pt x="826" y="-2" on="1"/>
        <pt x="293" y="-2" on="1"/>
        <pt x="293" y="203" on="1"/>
        <pt x="135" y="203" on="1"/>
        <pt x="135" y="1237" on="1"/>
        <pt x="293" y="1237" on="1"/>
      </contour>
      <contour>
        <pt x="667" y="817" on="1"/>
        <pt x="667" y="612" on="1"/>
        <pt x="508" y="612" on="1"/>
        <pt x="508" y="408" on="1"/>
        <pt x="350" y="408" on="1"/>
        <pt x="350" y="213" on="1"/>
        <pt x="769" y="213" on="1"/>
        <pt x="769" y="817" on="1"/>
      </contour>
    </TTGlyph>
</ttFont>
